<svg id="Layer_1" data-name="Layer 1" xmlns="http://www.w3.org/2000/svg" width="200" height="200" viewBox="0 0 200 200">
  <g>
    <path d="M41.2812,162.0912l.182.1819a6.6936,6.6936,0,0,0,4.549,1.0918,3.8155,3.8155,0,0,0,1.4557-.3639,1.2212,1.2212,0,0,0,.4549-1.7286.71.71,0,0,0-.3639-.364,5.5708,5.5708,0,0,0-1.5467-.6368c-.6368-.182-1.2737-.273-2.0016-.5459a7.2542,7.2542,0,0,1-1.4556-.7279,3.0415,3.0415,0,0,1-1.2738-2.1835,3.0033,3.0033,0,0,1,1.0008-2.82,3.6186,3.6186,0,0,1,2.0926-1.0918,11.08,11.08,0,0,1,3.0023-.091,5.6,5.6,0,0,1,2.0926.6369c.091,0,.091.091.182.182a19.2648,19.2648,0,0,1,.1819,2.1835v.091a5.3506,5.3506,0,0,0-.7278-.3639,7.11,7.11,0,0,0-3.9122-.5459,3.8013,3.8013,0,0,0-.91.3639,1.1358,1.1358,0,0,0-.182,1.5467l.182.1819a3.7972,3.7972,0,0,0,.91.3639c.8188.273,1.6377.4549,2.4565.7279a4.77,4.77,0,0,1,1.6376.91,3.0013,3.0013,0,0,1,1.0918,2.1835,4.4384,4.4384,0,0,1-.3639,2.1836,3.9677,3.9677,0,0,1-2.2745,1.9106,8.0136,8.0136,0,0,1-2.9114.3639,8.4466,8.4466,0,0,1-3.0024-.6369c-.5459-.1819-.5459-.1819-.6369-.8188a13.5853,13.5853,0,0,1-.1819-1.9106C41.2812,162.1822,41.2812,162.0912,41.2812,162.0912Z" style="fill: #274690"/>
    <path d="M60.9331,161.5453H54.5644a8.5842,8.5842,0,0,0,.273.8188,2.184,2.184,0,0,0,1.82,1.0918,5.8036,5.8036,0,0,0,3.9122-.8188l.1819-.091a4.565,4.565,0,0,0-.1819,1.0917c-.091.364-.091.6369-.182.91a.1957.1957,0,0,1-.182.182,7.352,7.352,0,0,1-2.0015.6369,5.6375,5.6375,0,0,1-3.0024-.182,4.3956,4.3956,0,0,1-3.1843-3.73,4.8239,4.8239,0,0,1,.6368-3.3663,4.4922,4.4922,0,0,1,3.6393-2.0926,4.5522,4.5522,0,0,1,2.6384.6369,4.2906,4.2906,0,0,1,1.9106,2.6384,7.1364,7.1364,0,0,1,.182,2.0016A.3343.3343,0,0,1,60.9331,161.5453Zm-2.2745-1.6377a1.89,1.89,0,0,0-1.9106-1.7286,1.9778,1.9778,0,0,0-2.0016,1.7286Z" style="fill: #274690"/>
    <path d="M81.2218,161.5453H74.8531a1.9914,1.9914,0,0,0,.7279,1.2737,2.6645,2.6645,0,0,0,1.4557.6369,5.8354,5.8354,0,0,0,3.2753-.5459,2.2775,2.2775,0,0,1,.6369-.3639,2.0026,2.0026,0,0,0-.091.7278,7.0214,7.0214,0,0,0-.182,1.3647.1957.1957,0,0,1-.1819.182,8.5138,8.5138,0,0,1-2.0016.6369,5.6375,5.6375,0,0,1-3.0024-.182,4.3924,4.3924,0,0,1-3.1843-3.6392,4.8234,4.8234,0,0,1,.6369-3.3663,4.3168,4.3168,0,0,1,3.73-2.0926,4.1128,4.1128,0,0,1,2.5474.6369,4.4263,4.4263,0,0,1,1.9106,2.82,5.53,5.53,0,0,1,.091,1.7286C81.3128,161.3633,81.2218,161.4543,81.2218,161.5453Zm-2.4565-1.6377a1.89,1.89,0,0,0-1.9106-1.7286,1.9944,1.9944,0,0,0-2.0925,1.7286Z" style="fill: #274690"/>
    <path d="M85.4979,156.1774l.091,1.2738.091-.091a3.2676,3.2676,0,0,1,2.1835-1.1828,3.7883,3.7883,0,0,1,2.4565.273,3.4533,3.4533,0,0,1,1.9106,2.5474,4.5658,4.5658,0,0,1,.1819,1.0918v5.2769H89.865v-4.913a2.9052,2.9052,0,0,0-.273-1.2737,1.7188,1.7188,0,0,0-1.9106-.8188,1.98,1.98,0,0,0-1.7286,2.0925v4.822H83.4053c-.091-3.0023.091-5.9137-.1819-8.9161Z" style="fill: #274690"/>
    <path d="M66.8468,162.6371c.4549-1.5467,1.0008-3.1844,1.5467-4.64.182-.5459.3639-1.0008.5459-1.5466a.1957.1957,0,0,1,.182-.182h2.5474l-.091.182c-1.2737,2.9113-2.4564,5.9137-3.73,8.7341,0,.091-.1819.182-.1819.182H65.937c-.091,0-.1819,0-.1819-.182-1.2738-2.9114-2.5475-5.9137-3.8212-8.8251,0-.091,0-.091-.091-.182H64.39c.0909,0,.1819,0,.1819.091.6369,1.6377,1.1828,3.2753,1.82,4.913.182.3639.182.8188.364,1.2737C66.8468,162.5461,66.8468,162.5461,66.8468,162.6371Z" style="fill: #274690"/>
    <path d="M145.9092,163.5469l1.0917.091a19.379,19.379,0,0,1,2.2746.2729,2.6815,2.6815,0,0,1,1.1827.4549,1.761,1.761,0,0,1,.91,1.5467,2.46,2.46,0,0,1-1.5467,2.4565,7.3553,7.3553,0,0,1-2.0015.6368,7.4309,7.4309,0,0,1-3.4573-.1819,5.1287,5.1287,0,0,1-1.0918-.364A2.1344,2.1344,0,0,1,142.27,165.73v-.091a2.5093,2.5093,0,0,1,1.0918-1.2737c.091-.091.182-.182.182-.2729a9.6993,9.6993,0,0,1,.6368-1.7287c0-.091,0-.091.091-.1819-.1819-.182-.5459-.273-.7278-.5459a2.9767,2.9767,0,0,1-1.0008-2.3655,3.126,3.126,0,0,1,2.6384-3.0934,6.3248,6.3248,0,0,1,3.1843.182h.182l2.82-.6369h.182l.1819,2.0926h-1.5466l.0909.1819A2.9875,2.9875,0,0,1,149.0025,162a1.3145,1.3145,0,0,1-.6369.182,7.58,7.58,0,0,1-2.0015.2729c-.182,0-.182,0-.182.182A2.0343,2.0343,0,0,0,145.9092,163.5469Zm.091,2.0015h-1.2738a1.0963,1.0963,0,0,0-.3639,1.0918c.091.273.273.6369.6369.6369a.3173.3173,0,0,1,.1819.091,6.15,6.15,0,0,0,1.2738.1819,10.0857,10.0857,0,0,0,1.7286-.1819,2.2819,2.2819,0,0,0,.6369-.364.5535.5535,0,0,0,0-.7278.2818.2818,0,0,0-.182-.091,1.293,1.293,0,0,0-.5459-.182A6.21,6.21,0,0,0,146,165.5484Zm.5458-7.46c-.1819.091-.4549.091-.6368.182a1.265,1.265,0,0,0-1.0008,1.2737,1.19,1.19,0,0,0,.91,1.2737,1.8259,1.8259,0,0,0,1.5467-.091,1.0142,1.0142,0,0,0,.7278-1.1827,1.0282,1.0282,0,0,0-.8188-1.1828,1.21,1.21,0,0,0-.7279-.2729Z" style="fill: #274690"/>
    <path d="M109.2439,164.6386v4.1852h-2.4565v-9.1891c0-1.0008-.091-2.0016-.1819-3.0024V156.45l2.3655-.182.0909,1.0918c.182-.182.4549-.3639.6369-.5459a4.581,4.581,0,0,1,6.2777,1.4557,5.38,5.38,0,0,1,.5459,1.2737,4.5815,4.5815,0,0,1-7.0965,5.0949Zm0-3.8212a2.32,2.32,0,1,0,0-.0909Z" style="fill: #274690"/>
    <path d="M95.4148,162.0912c.182.1819.3639.1819.5459.3639a7.701,7.701,0,0,0,4.1851,1.0008,3.8155,3.8155,0,0,0,1.4557-.3639,1.2213,1.2213,0,0,0,.4549-1.7287.71.71,0,0,0-.3639-.3639,5.5677,5.5677,0,0,0-1.5467-.6368c-.6368-.182-1.2737-.273-2.0016-.5459a7.2577,7.2577,0,0,1-1.4557-.7279,3.0417,3.0417,0,0,1-1.2737-2.1835,3.0033,3.0033,0,0,1,1.0008-2.82,3.3723,3.3723,0,0,1,2.0926-1.0918,11.08,11.08,0,0,1,3.0023-.091,5.6,5.6,0,0,1,2.0926.6369c.091,0,.091.091.182.1819a19.1717,19.1717,0,0,1,.1819,2.2746v.091c-.1819-.091-.1819-.182-.3639-.182a6.4466,6.4466,0,0,0-4.2761-.7279,2.724,2.724,0,0,0-.91.364,1.1357,1.1357,0,0,0-.182,1.5466l.182.182a3.8,3.8,0,0,0,.91.3639c.8188.273,1.6376.4549,2.4565.7279a5.7939,5.7939,0,0,1,1.6376.91,2.8165,2.8165,0,0,1,1.0918,2.0925,4.02,4.02,0,0,1-.3639,2.2746,3.5963,3.5963,0,0,1-2.1836,1.82,8.0133,8.0133,0,0,1-2.9114.3639,8.4466,8.4466,0,0,1-3.0023-.6369c-.5459-.1819-.5459-.1819-.6369-.7278a13.5719,13.5719,0,0,1-.1819-1.9106C95.5058,162.1822,95.5058,162.0912,95.4148,162.0912Z" style="fill: #274690"/>
    <path d="M140.6323,165.3665h-2.4565v-4.913a3.8155,3.8155,0,0,0-.3639-1.4557,1.5538,1.5538,0,0,0-1.82-.6368,1.9777,1.9777,0,0,0-1.7287,2.0015v5.004h-2.5474c-.091-3.0024.0909-5.9138-.182-8.9161l2.3655-.182.091,1.1828h.091a3.2676,3.2676,0,0,1,2.1835-1.1828,3.7883,3.7883,0,0,1,2.4565.2729,3.4725,3.4725,0,0,1,1.9106,2.4565,4.5658,4.5658,0,0,1,.1819,1.0918v5.0949Z" style="fill: #274690"/>
    <path d="M159.7383,158.8159l-.182-.182a6.1572,6.1572,0,0,0-3.6392-.4549c-.182,0-.273.091-.4549.182a.6029.6029,0,0,0-.182.6368l.182.182a7.586,7.586,0,0,0,1.3647.3639,9.4668,9.4668,0,0,1,2.0015.5459,2.45,2.45,0,0,1,1.4557,2.7294,2.5886,2.5886,0,0,1-1.6376,2.1836,7.1074,7.1074,0,0,1-5.4589-.182c-.091,0-.091-.091-.1819-.182a19.2049,19.2049,0,0,1-.182-2.3655l.182.091a7.0428,7.0428,0,0,0,4.0941,1.0008,1.293,1.293,0,0,0,.5459-.182c.2729-.1819.4549-.4549.2729-.7278-.0909-.182-.1819-.182-.2729-.2729a3.8017,3.8017,0,0,0-.91-.364c-.5459-.1819-1.0918-.1819-1.6377-.3639a7.041,7.041,0,0,1-1.4557-.6368,2.1339,2.1339,0,0,1-.91-2.0016,2.6331,2.6331,0,0,1,1.4557-2.1836,5.4849,5.4849,0,0,1,2.0926-.5458,7.1089,7.1089,0,0,1,2.82.2729.4162.4162,0,0,1,.3639.4549A8.1118,8.1118,0,0,1,159.7383,158.8159Z" style="fill: #274690"/>
    <path d="M118.433,156.3594l2.3655-.182.1819,1.6377a2.8948,2.8948,0,0,1,3.3663-1.6377l-.1819,2.3655h-.8189a2.21,2.21,0,0,0-1.9106,1.2738,3.6518,3.6518,0,0,0-.2729,1.3647v4.1851h-2.4565C118.5239,162.3641,118.7969,159.3618,118.433,156.3594Z" style="fill: #274690"/>
    <path d="M128.8958,165.3665h-2.4565v-6.9146h-1.0008l.091-2.0925h3.5482Z" style="fill: #274690"/>
    <path d="M129.1687,153.448a1.5335,1.5335,0,0,1-1.5467,1.5467h-.091a1.5334,1.5334,0,0,1-1.5466-1.5467v-.091a1.5334,1.5334,0,0,1,1.5466-1.5467h0a1.7612,1.7612,0,0,1,1.6377,1.6377Z" style="fill: #274690"/>
    <path d="M41.2812,170.9163h8.7342l-.182,2.1836H43.92v2.82h5.0949l-.182,2.1835H43.92v3.0933h6.3686l-.1819,2.2746H41.2812Z" style="fill: #274690"/>
    <path d="M61.206,183.4717H59.2044l-.1819-1.1828a1.5964,1.5964,0,0,1-.4549.3639,4.6826,4.6826,0,0,1-3.0934,1.0008,4.4888,4.4888,0,0,1-4.1851-4.0941,4.7537,4.7537,0,0,1,1.9106-4.549,4.6525,4.6525,0,0,1,5.3679.0909l.091.091v-4.458l2.4564-.182.091,12.9193Zm-4.9129-6.9146a2.4259,2.4259,0,0,0-2.2746,2.5475,2.5234,2.5234,0,0,0,2.2746,2.2745,2.4257,2.4257,0,0,0,2.2745-2.5475A2.311,2.311,0,0,0,56.2931,176.5571Z" style="fill: #274690"/>
    <path d="M107.8792,179.0136a4.6673,4.6673,0,0,1,3.3663-4.458,5.1228,5.1228,0,0,1,4.822.7278,4.5714,4.5714,0,0,1,1.82,3.8212,4.7626,4.7626,0,0,1-4.0032,4.549,5.7225,5.7225,0,0,1-3.6392-.5459A4.5126,4.5126,0,0,1,107.8792,179.0136Zm2.5474,0a.82.82,0,0,0,.091.4549,2.1262,2.1262,0,0,0,1.5467,1.82,2.2585,2.2585,0,0,0,2.3655-.4549,2.5474,2.5474,0,0,0-1.9106-4.3671A2.4127,2.4127,0,0,0,110.4266,179.0136Z" style="fill: #274690"/>
    <path d="M72.8516,183.4717H70.577l-.1819-1.0918-.273.273a3.967,3.967,0,0,1-2.4564,1.0007,3.6354,3.6354,0,0,1-1.7287-.1819,3.0433,3.0433,0,0,1-2.0925-2.4565,3.4107,3.4107,0,0,1-.091-1.0008v-5.55H66.21v4.913a2.5189,2.5189,0,0,0,.2729,1.1827,1.7186,1.7186,0,0,0,1.7286.8188,1.8654,1.8654,0,0,0,1.82-2.0015v-5.004h2.4564C72.67,177.4669,72.5786,180.4693,72.8516,183.4717Z" style="fill: #274690"/>
    <path d="M122.3451,183.4717h-2.5474c-.091-3.0024.0909-5.9138-.182-8.9161l2.3655-.182c0,.3639.091.8188.091,1.2737l.091-.091a3.2681,3.2681,0,0,1,2.1835-1.1827,4.4921,4.4921,0,0,1,2.4565.2729,3.4723,3.4723,0,0,1,1.9106,2.4565,4.5658,4.5658,0,0,1,.1819,1.0918v5.2769h-2.5474v-4.913a2.5185,2.5185,0,0,0-.273-1.1828,1.719,1.719,0,0,0-1.91-.8188,1.9778,1.9778,0,0,0-1.7287,2.0016v1.0918l-.091,3.8212Z" style="fill: #274690"/>
    <path d="M84.3152,177.3759c.0909-.2729.0909-.5458.1819-.8188a7.0214,7.0214,0,0,0,.182-1.3647.1956.1956,0,0,1,.1819-.1819,7.5427,7.5427,0,0,1,3.73-.6369,8.6608,8.6608,0,0,1,1.6377.3639,2.5888,2.5888,0,0,1,1.6377,2.1835,3.0984,3.0984,0,0,1,.0909.91v2.6384a22.3632,22.3632,0,0,0,.182,2.5475,1.1534,1.1534,0,0,0,.091.5458H89.956l-.182-1.0917c-.182.1819-.3639.4549-.5459.6368a3.1794,3.1794,0,0,1-2.0016.7279,4.1541,4.1541,0,0,1-1.82-.182,2.2388,2.2388,0,0,1-1.5466-2.3655,2.27,2.27,0,0,1,1.6376-2.2745,14.54,14.54,0,0,1,1.9106-.4549c.4549-.091.91-.182,1.4557-.2729.2729-.091.5459-.182.6369-.5459a.8649.8649,0,0,0-.364-.91,1.64,1.64,0,0,0-.91-.182,7.2685,7.2685,0,0,0-3.6392.7278ZM89.41,179.56l-.8188.2729a1.5484,1.5484,0,0,1-.6369.091,4.7978,4.7978,0,0,0-1.0918.273.7974.7974,0,0,0-.4549.91.7721.7721,0,0,0,.6369.7278,1.7847,1.7847,0,0,0,1.3647-.091A2.4164,2.4164,0,0,0,89.41,179.56Z" style="fill: #274690"/>
    <path d="M95.1419,176.5571h-1.82V174.92c0-.091,0-.182.1819-.182h0c.5459-.091,1.0918-.1819,1.5467-.2729.1819,0,.1819-.091.1819-.182V172.372l2.4565-.2729v2.3655c0,.1819,0,.1819.182.1819h3.0024l-.182,2.0016H97.5984v3.3663a1.5493,1.5493,0,0,0,.0909.6368,1.4519,1.4519,0,0,0,1.1828,1.0918,3.592,3.592,0,0,0,1.9106-.3639l.091-.091c0,.273-.091.6369-.091.8188,0,.364-.091.8189-.091,1.1828,0,.1819-.091.1819-.182.2729a5.1487,5.1487,0,0,1-2.3655.273,3.4056,3.4056,0,0,1-1.6376-.4549,3.1046,3.1046,0,0,1-1.3647-2.0016,3.4107,3.4107,0,0,1-.091-1.0008V176.921l.091-.3639Z" style="fill: #274690"/>
    <path d="M82.2226,177.103l-.182-.091a4.08,4.08,0,0,0-3.0933-.3639,2.2593,2.2593,0,0,0-1.7287,2.3655,2.3932,2.3932,0,0,0,2.2746,2.3655,4.479,4.479,0,0,0,2.6384-.5459l.091-.0909c0,.1819-.091.4549-.091.6368a11.1456,11.1456,0,0,0-.1819,1.7286c0,.091-.091.091-.091.182a5.8245,5.8245,0,0,1-4.913-.2729,4.4393,4.4393,0,0,1-2.2745-3.3663,4.6511,4.6511,0,0,1,4.0031-5.2769h0a7.0509,7.0509,0,0,1,3.0934.1819.1957.1957,0,0,1,.182.182,10.4928,10.4928,0,0,1,.2729,2.3655Z" style="fill: #274690"/>
    <path d="M103.2392,176.5571h-1.0918l.091-2.0925h3.5482v9.0071H103.33v-6.9146Z" style="fill: #274690"/>
    <path d="M105.9686,171.6442a1.5334,1.5334,0,0,1-1.5467,1.5466h-.091a1.5334,1.5334,0,0,1-1.5466-1.5466v-.091a1.5334,1.5334,0,0,1,1.5466-1.5467h0a1.5764,1.5764,0,0,1,1.6377,1.6377Z" style="fill: #274690"/>
  </g>
  <g>
    <rect x="37.1242" y="18.198" width="127.0784" height="127.0784" style="fill: #274690"/>
    <path d="M76.8052,131.5865h-3.77V102.2226a14.49,14.49,0,0,0-5.0593-11.1107L43.9692,69.1881h0a7.469,7.469,0,0,1,9.0274-5.7537A8.67,8.67,0,0,1,56.5679,65.22L72.1427,79.6044a14.84,14.84,0,0,1,4.8609,11.1107Z" style="fill: #7eb3b2"/>
    <path d="M87.2215,131.5865H83.055V84.7629a12.5435,12.5435,0,0,0-3.8689-8.9282L50.6158,50.042h0a8.3931,8.3931,0,0,1,10.1186-6.3489,7.4228,7.4228,0,0,1,3.8689,2.0832L83.551,63.236a12.0962,12.0962,0,0,1,3.8689,8.73v59.5215h-.1984Z" style="fill: #bbe4ed"/>
    <path d="M97.1418,131.5865h-2.48V68.2953a10.251,10.251,0,0,0-3.5713-7.837L75.218,46.0739h0A4.7851,4.7851,0,0,1,81.17,42.4034a3.6721,3.6721,0,0,1,2.1824,1.1905l10.2179,9.5234a10.7343,10.7343,0,0,1,3.3729,7.837Z" style="fill: #fff"/>
    <path d="M123.9264,131.5865h3.6705V102.2226a14.49,14.49,0,0,1,5.0594-11.1107l24.1062-21.7254h0a7.6183,7.6183,0,0,0-9.0275-5.7537,6.9535,6.9535,0,0,0-3.3728,1.7856L128.7874,79.8028a15,15,0,0,0-4.861,11.1107Z" style="fill: #7eb3b2"/>
    <path d="M113.907,131.5865h4.1665V84.7629a12.2515,12.2515,0,0,1,3.9681-8.9282L150.5127,50.042h0a8.2868,8.2868,0,0,0-9.92-6.3489,7.4228,7.4228,0,0,0-3.8689,2.0832l-19.1461,17.46a12.0962,12.0962,0,0,0-3.8689,8.73Z" style="fill: #bbe4ed"/>
    <path d="M104.2843,131.5865h2.48V68.2953a10.251,10.251,0,0,1,3.5713-7.837L126.01,45.9747h0a4.7851,4.7851,0,0,0-5.9522-3.67,3.6721,3.6721,0,0,0-2.1824,1.1905l-10.2179,9.5234a10.7341,10.7341,0,0,0-3.3729,7.837Z" style="fill: #fff"/>
    <path d="M105.8716,34.07h0a7.3085,7.3085,0,0,1,0,10.5155l-5.1585,5.1585h0l-5.1586-5.1585a7.3085,7.3085,0,0,1,0-10.5155h0A7.077,7.077,0,0,1,105.8716,34.07Z" style="fill: #fff"/>
  </g>
</svg>
