<svg id="Layer_1" data-name="Layer 1" xmlns="http://www.w3.org/2000/svg" width="200" height="200" viewBox="0 0 200 200">
  <rect x="35.1652" y="17.2693" width="131.7199" height="99.6924" style="fill: #00ad6d"/>
  <g>
    <rect x="35.1652" y="139.4926" width="131.7199" height="9.4725" style="fill: #00b3ed"/>
    <rect x="35.1652" y="120.5476" width="131.7199" height="18.945" style="fill: #f9b700"/>
  </g>
  <g>
    <path d="M67.1927,73.6414c8.8862,1.481,13.7,2.129,16.7542,9.75,0,0-.2777-12.28-15.1189-13.6071-8.5468-.7714-14.471-2.9-17.0937-8.8554C51.8886,61.7005,52.6291,71.2038,67.1927,73.6414Z" style="fill: #fff"/>
    <path d="M67.9949,82.4659c9.8119,1.1108,13.8847,2.2524,15.89,9.0714,0,0,1.1417-11.1078-13.2368-13.1751-11.7557-1.6662-18.1736-6.387-19.5929-13.7305C51.0864,64.6317,49.7288,80.3986,67.9949,82.4659Z" style="fill: #fff"/>
    <path d="M55.1284,61.9782c2.345,2.0981,7.1892,4.1654,14.8721,4.6282,4.8751.2777,8.1148,1.9131,10.3364,4.0421a15.4918,15.4918,0,0,1,3.4866,5.307S82.867,62.78,71.3581,62.441c-9.3491-.3085-16.8777-.5862-18.945-5.2453A7.4528,7.4528,0,0,0,55.1284,61.9782Z" style="fill: #fff"/>
    <path d="M62.8113,53.092a4.582,4.582,0,1,1-4.5974-4.5974A4.6089,4.6089,0,0,1,62.8113,53.092Z" style="fill: #fff"/>
  </g>
  <g>
    <path d="M106.5636,69.9388h-.0308a3.2888,3.2888,0,0,1-2.6536,1.265,4.076,4.076,0,0,1,.0309-8.1148,3.3488,3.3488,0,0,1,2.6227,1.2959h.0308V57.5042H107.86V70.957h-1.2959Zm-4.9985-2.87a2.6585,2.6585,0,0,0,2.4993,2.9312,2.6237,2.6237,0,0,0,2.5609-2.9,2.5546,2.5546,0,0,0-2.5609-2.7769A2.5853,2.5853,0,0,0,101.5651,67.0693Z" style="fill: #fff"/>
    <path d="M111.0685,67.5938c0,1.2959.1542,2.4067,1.7278,2.4067s1.7279-1.1108,1.7279-2.4067v-4.258H115.82v4.4123c0,2.0364-.7713,3.4557-3.0238,3.4557-2.2832,0-3.0237-1.4193-3.0237-3.4557V63.3358h1.2959v4.258Z" style="fill: #fff"/>
    <path d="M123.503,65.6191h-.0308a2.9274,2.9274,0,0,0-2.3759-1.2959,2.7473,2.7473,0,0,0-2.7152,2.8386,2.6964,2.6964,0,0,0,2.6535,2.8387,3.02,3.02,0,0,0,2.4993-1.3268h.0308v1.7588a4.2364,4.2364,0,0,1-2.4375.7713,3.9673,3.9673,0,0,1-4.0729-4.042,4.05,4.05,0,0,1,4.1037-4.042,4.1918,4.1918,0,0,1,2.3759.7714v1.7279Z" style="fill: #fff"/>
    <path d="M132.1733,70.9878h-1.296v-1.049h-.0308a3.2029,3.2029,0,0,1-2.6535,1.265,3.7886,3.7886,0,0,1-3.6718-4.042c0-2.1907,1.3885-4.0728,3.6718-4.0728a3.3033,3.3033,0,0,1,2.6226,1.2959h.0309V63.3358h1.2959v7.652Zm-6.2945-3.9185a2.6624,2.6624,0,0,0,2.53,2.9312,2.6237,2.6237,0,0,0,2.5609-2.9,2.5541,2.5541,0,1,0-5.0911-.0308Z" style="fill: #fff"/>
    <path d="M135.5673,70.9878h-1.2959V64.5392h-.8022V63.3358h.8022V60.5589h1.2959V63.305h1.3576v1.2033h-1.3576Z" style="fill: #fff"/>
    <path d="M139.5167,60.4355a.9257.9257,0,0,1-1.8513,0,.9257.9257,0,1,1,1.8513,0Zm-.2776,10.5523h-1.296v-7.652h1.296Z" style="fill: #fff"/>
    <path d="M140.8744,67.1927a4.042,4.042,0,1,1,4.042,4.042A4.0428,4.0428,0,0,1,140.8744,67.1927Zm1.3267-.0309a2.7179,2.7179,0,1,0,2.7153-2.8386A2.71,2.71,0,0,0,142.2011,67.1618Z" style="fill: #fff"/>
    <path d="M151.6428,64.2615h.0308a2.5355,2.5355,0,0,1,2.1907-1.1417c2.129,0,2.6227,1.5428,2.6227,3.3324v4.5665h-1.2959v-4.32c0-1.2342-.0926-2.345-1.6045-2.345-1.79,0-1.913,1.6662-1.913,3.0238v3.6409h-1.2959V63.3358h1.2959v.9257Z" style="fill: #fff"/>
  </g>
  <g>
    <path d="M107.4584,83.9161a2.484,2.484,0,0,0,2.4993,2.561,2.6859,2.6859,0,0,0,2.345-1.5737l1.1107.648a3.91,3.91,0,0,1-3.5483,2.16,3.7293,3.7293,0,0,1-3.7643-3.95c0-2.2832,1.3268-4.1345,3.7335-4.1345,2.4684,0,3.7643,2.0364,3.6408,4.32h-6.0167Zm4.6283-1.08a2.3435,2.3435,0,0,0-2.2524-2.0056,2.4662,2.4662,0,0,0-2.345,2.0056Z" style="fill: #fff"/>
    <path d="M116.16,80.738h.0309a2.5357,2.5357,0,0,1,2.1907-1.1416c2.129,0,2.6227,1.5427,2.6227,3.3323v4.5666h-1.296v-4.32c0-1.2342-.0925-2.345-1.6044-2.345-1.79,0-1.913,1.6661-1.913,3.0238v3.6408h-1.2959V79.8124H116.19v.9256Z" style="fill: #fff"/>
    <path d="M124.4287,87.4953h-1.2959V81.0466h-.8023V79.8432h.8023V77.0971h1.2959v2.7461h1.3576v1.2034h-1.3576Z" style="fill: #fff"/>
    <path d="M127.8227,80.6455h.0309a1.9787,1.9787,0,0,1,1.697-1.0491,2.2863,2.2863,0,0,1,1.1725.37L130.106,81.17a1.2548,1.2548,0,0,0-.7714-.3394c-1.45,0-1.5119,1.8513-1.5119,2.8387v3.826h-1.2959V79.8124h1.2959Z" style="fill: #fff"/>
    <path d="M132.2967,83.9161a2.4839,2.4839,0,0,0,2.4992,2.561,2.6858,2.6858,0,0,0,2.345-1.5737l1.1108.648a3.91,3.91,0,0,1-3.5483,2.16,3.7292,3.7292,0,0,1-3.7643-3.95c0-2.2832,1.3267-4.1345,3.7026-4.1345,2.4684,0,3.7643,2.0364,3.6408,4.32h-5.9858Zm4.6282-1.08a2.3433,2.3433,0,0,0-2.2524-2.0056,2.44,2.44,0,0,0-2.345,2.0056Z" style="fill: #fff"/>
  </g>
  <path d="M87.9889,52.8451h11.293v2.53H91.0127v5.3379h7.0041v2.53H91.0127v6.171H99.59v2.53H88.02V52.8451Z" style="fill: #fff"/>
  <path d="M93.2034,83.7927c0-5.0294,3.0547-8.084,6.9732-8.084a5.9177,5.9177,0,0,1,4.3815,1.9438l-1.3268,1.5428a4.0608,4.0608,0,0,0-3.0238-1.3885c-2.6844,0-4.5048,2.2216-4.5048,5.8624,0,3.6718,1.7279,5.9242,4.4431,5.9242a4.4553,4.4553,0,0,0,3.4249-1.6353l1.2959,1.5427a6.1125,6.1125,0,0,1-4.8134,2.2216C96.1964,91.7533,93.2034,88.8529,93.2034,83.7927Z" style="fill: #fff"/>
  <g>
    <g>
      <path d="M40.35,176.2938l-.58.7731a19.5453,19.5453,0,0,0-2.2419-1.3915,5.1087,5.1087,0,0,1-2.5125,1.7394l-.6571-.8117a4.5525,4.5525,0,0,0,2.4738-1.7008H34.5907v-.9277h2.4352a6.0936,6.0936,0,0,0,.0773-.9664h-.9664a5.7963,5.7963,0,0,1-.889.7731l-.8117-.6185a8.7687,8.7687,0,0,0,1.7781-1.8554l1.005.3093a1.3893,1.3893,0,0,1-.3093.4638H39.925v.9277H38.1469l-.0773.9664h2.1646v.9277H37.9149A21.0608,21.0608,0,0,1,40.35,176.2938Zm3.5561,5.8368H42.824v-.6185H36.7553v.58H35.673v-4.7932h8.2333Zm-1.0823-3.17v-.7345H36.7553v.7345Zm0,1.6234V179.85H36.7553v.7344Zm1.9714-4.0587H40.7367v-4.3679h4.0587Zm-1.0437-.9277v-2.4352H41.78v2.4352Z" style="fill: #00ad6d"/>
      <path d="M65.0853,181.2416l-.5025.9663a20.9009,20.9009,0,0,1-4.9864-1.0436,23.082,23.082,0,0,1-4.87,1.0436l-.4639-1.005a21.3866,21.3866,0,0,0,3.9814-.6957,15.4027,15.4027,0,0,1-1.4689-.9278c-.5025.2706-1.0823.5412-1.6621.8118l-.6571-.85a10.4488,10.4488,0,0,0,1.43-.6572,1.9534,1.9534,0,0,1-.3479-.3092l.7344-.6184c.1933.1546.3866.3092.5412.4251a6.8771,6.8771,0,0,0,1.1983-.889.7942.7942,0,0,1-.6185-.8117v-1.3529h1.0437v.9663c0,.1933.1159.3093.3478.3093h.85a6.3749,6.3749,0,0,0,1.121-.0387.3958.3958,0,0,0,.1933-.2319,1.7938,1.7938,0,0,0,.0773-.5412l1.0436.3093a1.75,1.75,0,0,1-.2319.889.7291.7291,0,0,1-.5025.3865,16.1548,16.1548,0,0,1-1.9714.0774c-.2705.27-.4638.5025-.6184.6571h4.3679v.85a11.2847,11.2847,0,0,1-2.1646,1.4688A13.7642,13.7642,0,0,0,65.0853,181.2416Zm-.4252-5.18H63.5778v-1.0437H55.6923v1.0437H54.61v-1.9327H64.66Zm-7.6149-.116a8.54,8.54,0,0,1-1.6235,2.1647l-.8117-.58a11.0944,11.0944,0,0,0,1.6235-2.0486Zm7.19-3.7108a67.8346,67.8346,0,0,1-9.1224.58l-.3865-.9277c.7344,0,1.3915.0387,2.01.0387a36.8577,36.8577,0,0,0,6.88-.5025Zm-6.5712,1.43-1.16.3093a6.081,6.081,0,0,0-1.0437-.6958l1.121-.3866A4.2628,4.2628,0,0,1,57.6637,173.6653Zm3.7881,5.4116H57.78a9.1393,9.1393,0,0,0,1.8168,1.005A8.4724,8.4724,0,0,0,61.4518,179.0769Zm-.8117-5.45-1.121.3479a8.8088,8.8088,0,0,0-1.16-.7345l1.1209-.3865A3.5841,3.5841,0,0,1,60.64,173.6267Zm.1159,2.4352-.9277.4638a8.4942,8.4942,0,0,0-.85-.9277l.8891-.5025A6.9371,6.9371,0,0,1,60.756,176.0619Zm3.0924-3.0537a6.1676,6.1676,0,0,1-1.2756.9664l-1.1983-.3866a7.98,7.98,0,0,0,1.3915-.9663Zm.4638,4.4452-.85.5412a13.6591,13.6591,0,0,0-1.4688-2.2033l.85-.5025A14.1913,14.1913,0,0,1,64.3122,177.4534Z" style="fill: #00ad6d"/>
      <path d="M85.1046,180.2752H80.4274v.7345a1.1063,1.1063,0,0,1-.1932.6571.7694.7694,0,0,1-.4639.3092,5.8633,5.8633,0,0,1-1.0823.0773,6.864,6.864,0,0,1-.85-.0386l-.3092-.9278h1.5848c.1546,0,.2319-.0773.2319-.1932v-.6185H74.552v-.85h4.7931v-.5025a9.4026,9.4026,0,0,0,1.6622-.4638H76.4847v-.7731H82.94v.7731a19.717,19.717,0,0,1-2.5126.9277v.0773h4.6772Zm-.1933-1.7781h-1.005v-1.3915H75.7889v1.3529H74.7066v-2.242h.7344l-.2319-4.3679a8.4974,8.4974,0,0,0,2.3579-.4639l.5025.85a9.101,9.101,0,0,1-1.7781.3866l.0387.6571h1.5848v.7731H76.3688l.0386.6958h1.5075v.773H76.4461l.0386.6958h6.6872l.0386-.6958H81.5871v-.773h1.6621l.0387-.6958H81.5871v-.7731h1.7394l.0387-.6571H81.51V171.81h2.899l-.1932,4.4453H84.95v2.2419ZM81.2392,171.81a3.53,3.53,0,0,1-.7731.7345,7.1534,7.1534,0,0,1,.5412.5411l-.6572.58a4.6693,4.6693,0,0,0-.6184-.6185,9.2313,9.2313,0,0,1-1.237.6185l-.5025-.6958a4.2982,4.2982,0,0,0,1.0437-.5025c-.116-.116-.3479-.2706-.6571-.5025l.58-.58.8117.58a3.0206,3.0206,0,0,0,.6185-.58Zm.0386,3.8268-.6571.5412a7.07,7.07,0,0,0-.8117-.7731,13.8478,13.8478,0,0,1-1.237.6958l-.5025-.6572a6.8017,6.8017,0,0,0,1.0437-.5411,3.6818,3.6818,0,0,0-.8117-.5412l.58-.58a6.1635,6.1635,0,0,1,.9277.6571,6.1289,6.1289,0,0,0,.6957-.6571l.7345.4252c-.232.2706-.5025.5025-.7345.7344A2.6384,2.6384,0,0,1,81.2778,175.6367Z" style="fill: #00ad6d"/>
      <path d="M100.9493,172.1965a18.5068,18.5068,0,0,1-1.43,2.2419h.889v.9664H98.7073a7.6859,7.6859,0,0,1-.9663.9277h2.1259v.889c-.4252.3866-.9277.8117-1.5461,1.2756v.1546c.7731-.1159,1.5075-.2706,2.1646-.3865v1.005c-.3865.0773-1.0823.1933-2.1646.3479v1.3529a1.1278,1.1278,0,0,1-.2706.85,1.5753,1.5753,0,0,1-1.121.2706h-.7344l-.3092-1.0437a7.1815,7.1815,0,0,0,.85.0386c.3865,0,.5411-.0773.5411-.2319V179.85c-1.1209.1547-1.9327.2319-2.4352.2706l-.1933-1.005a26.1806,26.1806,0,0,0,2.6285-.2706v-.7344c.4252-.2706.8118-.58,1.121-.8117H96.4654c-.2706.1932-.7344.4638-1.3529.8117l-.5412-.8117a11.8657,11.8657,0,0,0,2.8218-1.8554H94.7259v-.9664h2.2033v-1.0437H95.19v-.9277h1.7394v-.9663h1.0437v.9663h1.1983v.85a12.23,12.23,0,0,0,.889-1.5075Zm-1.8554,1.1982h-1.16v1.0437h.3479Q98.572,174.0906,99.0939,173.3947Zm6.2233,7.9242-.6571.85a8.0367,8.0367,0,0,1-2.0874-1.8168,8.6023,8.6023,0,0,1-2.3965,1.7781l-.7344-.8117a7.517,7.517,0,0,0,2.5511-1.8554,8.001,8.001,0,0,1-.8117-2.4353l.9277-.4251a7.0577,7.0577,0,0,0,.5412,1.8554,11.9682,11.9682,0,0,0,.8117-4.2134h-1.2756a14.5425,14.5425,0,0,1-1.3142,2.9764l-.6958-.8117a12.4024,12.4024,0,0,0,1.5462-4.9864l.9663.1933c-.0773.5411-.1546,1.0823-.2706,1.6234h2.7831v1.005h-.7344a11.0893,11.0893,0,0,1-1.2369,5.2957A6.8533,6.8533,0,0,0,105.3172,181.3189Z" style="fill: #00ad6d"/>
      <path d="M125.3752,173.24h-6.262a10.9447,10.9447,0,0,1-1.74,1.2756c1.4689,0,3.131-.0773,4.9091-.2319-.1159-.0773-.3479-.1933-.6184-.3865l.9663-.58a13.7742,13.7742,0,0,1,2.5125,1.778l-.8117.6958a8.9286,8.9286,0,0,0-.9277-.7731c-3.0537.2319-5.6822.3866-7.8468.3866l-.1933-.9277a5.9749,5.9749,0,0,0,2.2033-1.3529h-2.7831v-.9664h3.7881a9.0105,9.0105,0,0,0,.7345-.889l1.3142.2319a5.1626,5.1626,0,0,1-.5412.6571h5.257V173.24Zm-1.237,7.9242a.8147.8147,0,0,1-.1932.5025,1.2086,1.2086,0,0,1-.4252.3478,6.2444,6.2444,0,0,1-1.16.0774,9.761,9.761,0,0,1-1.0436-.0387l-.3093-1.005a8.7279,8.7279,0,0,0,1.0051.0387,3.3267,3.3267,0,0,0,.889-.0773.2611.2611,0,0,0,.1546-.232v-1.16c-1.6621.3866-3.5562.7344-5.6435,1.0823l-.3479-.7731a4.5559,4.5559,0,0,1-1.2369,2.242l-.9664-.6185a3.7706,3.7706,0,0,0,1.2756-3.2083v-2.4352h8.0014v5.257Zm-1.0823-2.4739v-1.7781h-5.7981v.6184c1.9714.0774,3.5948.1547,4.8318.232l-.3093.9277q-2.4351-.2321-4.5225-.2319a6.4557,6.4557,0,0,1-.1546,1.3142C119.0359,179.5021,121.0459,179.1542,123.0559,178.69Z" style="fill: #00ad6d"/>
      <path d="M144.2735,178.5744h-4.1746v3.5175h-1.121v-3.5175h-4.136v-5.141h4.136v-1.9327h1.121v1.9327h4.1746Zm-5.2956-1.0437v-3.015h-3.015v2.9764h3.015Zm4.1746,0v-3.015h-3.0536v2.9764h3.0536Z" style="fill: #00ad6d"/>
      <path d="M156.1755,175.4048a22.0164,22.0164,0,0,1-1.4689,5.4889l-.9664-.58a17.9776,17.9776,0,0,0,1.3916-5.141Zm5.914,3.131q-.0579,1.16-.1159,1.8554a3.8556,3.8556,0,0,1-.2319.9277,2.2081,2.2081,0,0,1-.4252.4252,1.5566,1.5566,0,0,1-.8118.2319,10.5074,10.5074,0,0,1-1.1209.0386c-.4252,0-.85,0-1.237-.0386a1.4556,1.4556,0,0,1-.7731-.1933,1.0529,1.0529,0,0,1-.3092-.3865,1.2912,1.2912,0,0,1-.1159-.58v-6.6872h1.0823v6.4166c0,.3092.1932.4252.5411.4252H160.35a.7461.7461,0,0,0,.3866-.116c.1159-.0773.2319-.4252.27-1.0823.0387-.6185.0774-1.16.0774-1.5462Zm-1.005-3.7495-.9277.6571a14.2072,14.2072,0,0,0-2.5125-3.3242l.7731-.6571A13.6129,13.6129,0,0,1,161.0845,174.7863Zm3.4016,5.2183-1.0437.5025a18.9449,18.9449,0,0,0-1.8554-4.7544l.9664-.5025A22.3377,22.3377,0,0,1,164.4861,180.0046Z" style="fill: #00ad6d"/>
    </g>
    <g>
      <path d="M34,159.4125a.5979.5979,0,0,1,.622-.5909.6256.6256,0,0,1,.6531.5909.6069.6069,0,0,1-.6531.5909A.5639.5639,0,0,1,34,159.4125Zm.1555,1.4928h.9952v4.7893h-.9952Z" style="fill: #00ad6d"/>
      <path d="M37.1411,162.8645h2.3013v.7464H37.1411Z" style="fill: #00ad6d"/>
      <path d="M41.5572,159.2881h.9952v5.5668h2.7057v.84h-3.732v-6.4065Z" style="fill: #00ad6d"/>
      <path d="M46.6887,163.331a2.318,2.318,0,0,1,2.177-2.519c1.275,0,1.9592.9019,1.9592,2.27,0,.1866-.0311.4043-.0311.4976h-3.11a1.4649,1.4649,0,0,0,1.4928,1.4617,2.1642,2.1642,0,0,0,1.1506-.3421l.3421.622a2.7723,2.7723,0,0,1-1.6171.4976A2.3038,2.3038,0,0,1,46.6887,163.331Zm3.2654-.4353c0-.84-.3732-1.3062-1.0573-1.3062a1.2958,1.2958,0,0,0-1.2129,1.3062Z" style="fill: #00ad6d"/>
      <path d="M52.38,164.42c0-1.0263.8708-1.555,2.8612-1.7727,0-.56-.2177-1.0574-.9019-1.0574a2.6369,2.6369,0,0,0-1.3995.4976l-.3732-.6842a3.7347,3.7347,0,0,1,1.9282-.622c1.1818,0,1.7416.7464,1.7416,2.0215v2.8923h-.8086l-.0933-.56h-.0311a2.41,2.41,0,0,1-1.5239.6531A1.2819,1.2819,0,0,1,52.38,164.42Zm2.8612.0311v-1.1817c-1.4306.1865-1.8971.5287-1.8971,1.0573,0,.4665.311.6531.7464.6531A1.4273,1.4273,0,0,0,55.2411,164.4506Z" style="fill: #00ad6d"/>
      <path d="M58.5377,160.9053h.8086l.0933.8708h.0311a1.66,1.66,0,0,1,1.3683-.9952,1.1474,1.1474,0,0,1,.5287.0933l-.1866.8707a1.1361,1.1361,0,0,0-.4665-.0933c-.4043,0-.8708.28-1.1818,1.0263v2.9856h-.9951Z" style="fill: #00ad6d"/>
      <path d="M62.9227,160.9053h.8086l.0933.6531h.0311a2.2275,2.2275,0,0,1,1.5861-.7775c1.0263,0,1.4617.6842,1.4617,1.897v3.0167h-.9952v-2.8923c0-.84-.2488-1.1507-.8086-1.1507a1.6463,1.6463,0,0,0-1.1818.6531v3.39h-.9952v-4.7893Z" style="fill: #00ad6d"/>
      <path d="M68.8628,163.331a2.318,2.318,0,0,1,2.1769-2.519c1.2751,0,1.9593.9019,1.9593,2.27,0,.1866-.0311.4043-.0311.4976h-3.11a1.4649,1.4649,0,0,0,1.4928,1.4617,2.1643,2.1643,0,0,0,1.1507-.3421l.3421.622a2.7724,2.7724,0,0,1-1.6172.4976A2.32,2.32,0,0,1,68.8628,163.331Zm3.2965-.4353c0-.84-.3732-1.3062-1.0574-1.3062a1.2958,1.2958,0,0,0-1.2129,1.3062Z" style="fill: #00ad6d"/>
      <path d="M74.9894,160.9053h.8086l.0933.8708h.0311a1.66,1.66,0,0,1,1.3684-.9952,1.1474,1.1474,0,0,1,.5287.0933l-.1866.8707a1.1361,1.1361,0,0,0-.4665-.0933c-.4043,0-.8708.28-1.1818,1.0263v2.9856h-.9952Z" style="fill: #00ad6d"/>
      <path d="M82.2978,159.2881H86.092v.84H83.293v1.7727h2.3636v.84H83.293v2.0836h2.8612v.84H82.2667v-6.3754Z" style="fill: #00ad6d"/>
      <path d="M87.8647,163.331a2.27,2.27,0,0,1,2.0526-2.519,1.8362,1.8362,0,0,1,1.275.5287l-.0311-.7775v-1.7727h.9952v6.9352h-.8086l-.0933-.5287h-.0311a1.9277,1.9277,0,0,1-1.3994.6531C88.6422,165.819,87.8647,164.886,87.8647,163.331Zm3.2965,1.0885V162.087a1.5077,1.5077,0,0,0-1.0574-.4354c-.6842,0-1.2128.622-1.2128,1.6794,0,1.0885.4354,1.6794,1.1817,1.6794A1.6037,1.6037,0,0,0,91.1612,164.42Z" style="fill: #00ad6d"/>
      <path d="M94.4578,163.9219v-3.0166h.9952v2.8922c0,.84.2488,1.1507.8086,1.1507.4354,0,.7464-.2177,1.1507-.7153v-3.3276h.9952v4.7893h-.8086l-.0933-.7153h-.0311a2.0242,2.0242,0,0,1-1.555.84C94.8932,165.819,94.4578,165.1348,94.4578,163.9219Z" style="fill: #00ad6d"/>
      <path d="M100.4289,163.331a2.3459,2.3459,0,0,1,2.3636-2.519,1.9929,1.9929,0,0,1,1.3995.56l-.4976.653a1.1772,1.1772,0,0,0-.8708-.3732c-.8086,0-1.3684.6842-1.3684,1.71,0,.9952.56,1.6794,1.3373,1.6794a1.691,1.691,0,0,0,1.0574-.4354l.4043.6531a2.264,2.264,0,0,1-1.555.5909A2.2948,2.2948,0,0,1,100.4289,163.331Z" style="fill: #00ad6d"/>
      <path d="M105.7159,164.42c0-1.0263.8708-1.555,2.8612-1.7727,0-.56-.2177-1.0574-.9019-1.0574a2.6369,2.6369,0,0,0-1.4.4976l-.3732-.6842a3.7347,3.7347,0,0,1,1.9282-.622c1.1818,0,1.7416.7464,1.7416,2.0215v2.8923h-.8086l-.0933-.56h-.0311a2.41,2.41,0,0,1-1.5239.6531A1.2819,1.2819,0,0,1,105.7159,164.42Zm2.8923.0311v-1.1817c-1.4306.1865-1.8971.5287-1.8971,1.0573,0,.4665.311.6531.7464.6531A1.5107,1.5107,0,0,0,108.6082,164.4506Z" style="fill: #00ad6d"/>
      <path d="M111.8736,164.14v-2.4257h-.6842v-.7464l.7464-.0622.1244-1.3373h.84v1.3373h1.244v.8085H112.9V164.14c0,.56.1866.8708.6842.8708a1.6348,1.6348,0,0,0,.5287-.1244l.1866.7464a2.9266,2.9266,0,0,1-.933.1866C112.2468,165.819,111.8736,165.1348,111.8736,164.14Z" style="fill: #00ad6d"/>
      <path d="M115.8855,159.4125a.5979.5979,0,0,1,.622-.5909.6256.6256,0,0,1,.6531.5909.6069.6069,0,0,1-.6531.5909A.5639.5639,0,0,1,115.8855,159.4125Zm.1244,1.4928h.9952v4.7893H116.01Z" style="fill: #00ad6d"/>
      <path d="M119.0266,163.331a2.2946,2.2946,0,0,1,2.27-2.519,2.33,2.33,0,0,1,2.27,2.519,2.28,2.28,0,1,1-4.54,0Zm3.4831,0c0-1.0262-.4665-1.71-1.2129-1.71s-1.2128.6842-1.2128,1.71c0,.9952.4665,1.6794,1.2128,1.6794S122.51,164.3262,122.51,163.331Z" style="fill: #00ad6d"/>
      <path d="M125.5575,160.9053h.8086l.0933.6531h.0311a2.2275,2.2275,0,0,1,1.5861-.7775c1.0263,0,1.4617.6842,1.4617,1.897v3.0167h-.9952v-2.8923c0-.84-.2488-1.1507-.8086-1.1507a1.6463,1.6463,0,0,0-1.1818.6531v3.39h-.9952Z" style="fill: #00ad6d"/>
      <path d="M134.39,162.5225c0-2.0837,1.2751-3.3588,2.8923-3.3588a2.4807,2.4807,0,0,1,1.8349.8086l-.56.6531a1.7212,1.7212,0,0,0-1.244-.56c-1.12,0-1.866.933-1.866,2.4257,0,1.5239.7153,2.4569,1.8349,2.4569a1.86,1.86,0,0,0,1.4306-.6842l.5287.622a2.5861,2.5861,0,0,1-1.99.933C135.6027,165.819,134.39,164.6061,134.39,162.5225Z" style="fill: #00ad6d"/>
      <path d="M140.7652,163.331a2.318,2.318,0,0,1,2.177-2.519c1.2751,0,1.9593.9019,1.9593,2.27,0,.1866-.0311.4043-.0311.4976h-3.11a1.4649,1.4649,0,0,0,1.4928,1.4617,2.1643,2.1643,0,0,0,1.1507-.3421l.3421.622a2.7724,2.7724,0,0,1-1.6172.4976A2.32,2.32,0,0,1,140.7652,163.331Zm3.2966-.4353c0-.84-.3732-1.3062-1.0574-1.3062a1.2958,1.2958,0,0,0-1.2129,1.3062Z" style="fill: #00ad6d"/>
      <path d="M146.8919,160.9053h.8086l.0933.6531h.0311a2.2275,2.2275,0,0,1,1.5861-.7775c1.0263,0,1.4617.6842,1.4617,1.897v3.0167h-1.0263v-2.8923c0-.84-.2488-1.1507-.8086-1.1507a1.6463,1.6463,0,0,0-1.1818.6531v3.39h-.9952v-4.7893Z" style="fill: #00ad6d"/>
      <path d="M153.33,164.14v-2.4257h-.6842v-.7464l.7464-.0622.1244-1.3373h.84v1.3373H155.6v.8085h-1.244V164.14c0,.56.1866.8708.6842.8708a1.6348,1.6348,0,0,0,.5287-.1244l.1866.7464a2.9266,2.9266,0,0,1-.933.1866C153.7027,165.819,153.33,165.1348,153.33,164.14Z" style="fill: #00ad6d"/>
      <path d="M157.4658,160.9053h.8086l.0933.8708h.0311a1.66,1.66,0,0,1,1.3684-.9952,1.1474,1.1474,0,0,1,.5287.0933l-.1866.8707a1.1361,1.1361,0,0,0-.4665-.0933c-.4043,0-.8708.28-1.1818,1.0263v2.9856h-.9952Z" style="fill: #00ad6d"/>
      <path d="M161.4465,163.331a2.318,2.318,0,0,1,2.177-2.519c1.2751,0,1.9593.9019,1.9593,2.27,0,.1866-.0311.4043-.0311.4976h-3.11a1.4649,1.4649,0,0,0,1.4928,1.4617,2.1643,2.1643,0,0,0,1.1507-.3421l.3421.622a2.7724,2.7724,0,0,1-1.6172.4976A2.3038,2.3038,0,0,1,161.4465,163.331Zm3.2655-.4353c0-.84-.3732-1.3062-1.0574-1.3062a1.2958,1.2958,0,0,0-1.2129,1.3062Z" style="fill: #00ad6d"/>
    </g>
  </g>
</svg>
