<svg id="Layer_1" data-name="Layer 1" xmlns="http://www.w3.org/2000/svg" xmlns:xlink="http://www.w3.org/1999/xlink" width="200" height="200" viewBox="0 0 200 200">
  <g>
    <g>
      <path d="M91.2261,68.7975c0-1.0909.0537-2.2123.1512-3.3668,1.1645-12.9107,9.0815-29.2856,17.6491-35.9023H65.95V86.2158A75.5163,75.5163,0,0,0,92.1517,76.0033,28.1547,28.1547,0,0,1,91.2261,68.7975Z" style="fill: #0b2269"/>
      <path d="M108.0423,90.3764a19.6671,19.6671,0,0,1-12.8845-7.8053A83.4924,83.4924,0,0,1,65.9505,93.5138v4.3179H134.254V82.693A30.24,30.24,0,0,1,108.0423,90.3764Z" style="fill: #0b2269"/>
      <path d="M125.2016,38.3083c0,9.8564-6.4514,24.37-20.7624,37.34-.945.8674-2.0947,1.8319-3.4006,2.8454a12.7485,12.7485,0,0,0,8.3288,4.833c12.5016,2.3635,21.0574-6.0985,24.8867-11.04V29.5284H122.5709a10.0858,10.0858,0,0,1,1.6272,2.8066A16.4619,16.4619,0,0,1,125.2016,38.3083Z" style="fill: #0b2269"/>
      <path d="M118.0787,38.4544a9.6183,9.6183,0,0,0-.565-3.5127c-.468-1.2179-.9456-1.2136-1.17-1.21-4.57.029-16.407,16.6232-17.8147,32.3407-.0877.9745-.1318,1.9153-.1318,2.8111,0,.8433.0635,1.6325.1366,2.4064.3848-.3256.7505-.6519,1.0864-.9593C112.9924,58.2166,118.0787,45.5967,118.0787,38.4544Z" style="fill: #0b2269"/>
      <path d="M109.3674,83.3261a12.7483,12.7483,0,0,1-8.3288-4.833c1.3059-1.0135,2.4555-1.978,3.4006-2.8454,14.3118-12.9706,20.7624-27.4835,20.7624-37.3394a16.46,16.46,0,0,0-1.0035-5.9725,10.083,10.083,0,0,0-1.6272-2.8066H109.0264c-8.5682,6.6166-16.4846,22.9916-17.6491,35.9023-.0975,1.1544-.1512,2.2758-.1512,3.3668a28.1549,28.1549,0,0,0,.9258,7.2058A75.5171,75.5171,0,0,1,65.95,86.2165v7.2981A83.4925,83.4925,0,0,0,95.1573,82.5718a19.6671,19.6671,0,0,0,12.8845,7.8053A30.24,30.24,0,0,0,134.254,82.693V72.2852C130.4248,77.2263,121.869,85.69,109.3674,83.3261ZM98.5342,71.2916c-.0731-.7739-.1366-1.5624-.1366-2.4064,0-.8961.0441-1.8366.1318-2.8111,1.4077-15.7175,13.2446-32.3117,17.8147-32.3407.224-.0053.7016-.01,1.1695,1.21a9.6159,9.6159,0,0,1,.565,3.5127c0,7.1423-5.0864,19.7609-18.458,31.8785C99.2847,70.64,98.919,70.966,98.5342,71.2916Z" style="fill: #fff"/>
    </g>
    <path d="M128.0762,16.184a6.0073,6.0073,0,1,1-6.0121-6.0077A6.0073,6.0073,0,0,1,128.0762,16.184Z" style="fill: #f60"/>
  </g>
  <g>
    <path d="M29.71,128.7846H45.3357l-.3058,2.13H27l4.9027-31.5977h2.4043Z" style="fill: #0b2269"/>
    <path d="M65.7177,129.02a12.7863,12.7863,0,0,1-7.2033,2.3121,9.5017,9.5017,0,0,1-10.1631-10.0042,11.02,11.02,0,0,1,10.3879-11.6187q.1161-.0065.2322-.01c4.9066,0,8.1724,3.2856,8.1724,8.8a13.884,13.884,0,0,1-.099,1.5773h-16.19a10.8757,10.8757,0,0,0-.1028,1.3431,7.7105,7.7105,0,0,0,7.4008,8.0082q.207.0081.4141.0052a12.3147,12.3147,0,0,0,7.1515-2.5949Zm-.8221-10.7556a5.7319,5.7319,0,0,0-5.9756-6.67,8.2522,8.2522,0,0,0-7.7114,6.67Z" style="fill: #0b2269"/>
    <path d="M88.6977,130.9145H86.4489l.3578-2.4513a13.17,13.17,0,0,1-7.8627,2.8686,7.92,7.92,0,0,1-8.0281-7.8109q-.0036-.2644.01-.5286c0-6.4881,5.6178-13.2939,16.29-13.2939a25.4993,25.4993,0,0,1,4.6959.4133Zm.7668-19.4124a12.8444,12.8444,0,0,0-2.809-.2781c-6.9964,0-13.3334,4.8193-13.3334,12.0464a5.79,5.79,0,0,0,5.98,6.35,11.8434,11.8434,0,0,0,7.8627-3.52Z" style="fill: #0b2269"/>
    <path d="M99.8818,115.8129l.1027.0917c3.37-4.3548,5.1582-6.2062,8.0675-6.2062a6.09,6.09,0,0,1,2.2486.4133V112.15a5.7644,5.7644,0,0,0-2.352-.5561c-2.7574,0-5.872,3.48-8.4725,6.9528l-1.943,12.368h-2.248l3.2182-20.8028h2.2488Z" style="fill: #0b2269"/>
    <path d="M115.45,113.5407l.0954.0912a13.1984,13.1984,0,0,1,8.7408-3.9335,5.7187,5.7187,0,0,1,5.6655,6.9487l-2.1931,14.2674H125.51l2.1454-13.9888c.5641-3.6637-1.3269-5.3319-3.981-5.3319-2.8127,0-5.4191,1.5295-8.6374,4.5416l-2.2963,14.78h-2.2488l3.2184-20.8036h2.2486Z" style="fill: #0b2269"/>
    <path d="M151.8116,129.02a12.7736,12.7736,0,0,1-7.1987,2.3121A9.5,9.5,0,0,1,134.45,121.3276a11.0172,11.0172,0,0,1,10.3815-11.6185q.1167-.0066.2337-.0107c4.9115,0,8.1765,3.2856,8.1765,8.8a12.1446,12.1446,0,0,1-.1028,1.5773H136.9524a10.2142,10.2142,0,0,0-.1028,1.3431,7.71,7.71,0,0,0,7.4,8.0081q.2058.0081.4118.0053a12.3027,12.3027,0,0,0,7.1514-2.5949Zm-.8183-10.7556a5.7335,5.7335,0,0,0-5.9754-6.67,8.2408,8.2408,0,0,0-7.708,6.67Z" style="fill: #0b2269"/>
    <path d="M161.5218,115.8129l.0952.0917c3.3692-4.3548,5.1581-6.2062,8.0735-6.2062a6.0179,6.0179,0,0,1,2.24.4133V112.15a5.7579,5.7579,0,0,0-2.3442-.5561c-2.757,0-5.872,3.48-8.4784,6.9528l-1.9387,12.368H156.921l3.2182-20.8028h2.24Z" style="fill: #0b2269"/>
  </g>
  <image width="1488" height="360" transform="translate(22.7254 146.3366) scale(0.1039)" xlink:href="C:%5CUsers%5CPC%5CDownloads%5Cnebula-logo.png"/>
  <line x1="26.9208" y1="141.7327" x2="168.1881" y2="141.7327" style="fill: none;stroke: #000;stroke-miterlimit: 10;stroke-width: 0.5px;opacity: 0.17"/>
</svg>
