<svg id="Layer_1" data-name="Layer 1" xmlns="http://www.w3.org/2000/svg" xmlns:xlink="http://www.w3.org/1999/xlink" width="200" height="200" viewBox="0 0 200 200">
  <defs>
    <linearGradient id="linear-gradient" x1="105.1815" y1="366.7759" x2="29.1484" y2="424.5349" gradientTransform="translate(0 -299)" gradientUnits="userSpaceOnUse">
      <stop offset="0" stop-color="#06a4a5"/>
      <stop offset="0.5169" stop-color="#1673ae"/>
      <stop offset="1" stop-color="#2349b5"/>
    </linearGradient>
  </defs>
  <g>
    <path d="M128.7432,74.49c0,6.7362-4.1689,10.4221-8.5665,10.4221-4.423,0-8.6172-3.5334-8.6172-10.4221,0-6.7362,4.22-10.4221,8.5918-10.4221S128.7432,67.6013,128.7432,74.49Zm-8.5919,8.7952c3.3046,0,4.6772-4.0672,4.6772-8.8206,0-4.7027-1.3472-8.8207-4.6772-8.8207-3.3045,0-4.7026,4.0926-4.7026,8.8207C115.4741,79.218,116.8213,83.2852,120.1513,83.2852Z" style="fill: #29499f"/>
    <g>
      <path d="M131.336,77.21l-1.6777-.28v-.6609h4.1688V76.93l-2.059.28Zm.6355-.9405,2.669,6.965-.7371.9405,2.7707-7.9055h.94l-3.1266,8.2868h-.7626l-3.4571-8.2868Zm4.6518.9405-1.7032-.28v-.6609h3.2792V76.93l-1.22.28Z" style="fill: #29499f"/>
      <path d="M146.13,79.3451a3.2912,3.2912,0,0,1-.1271.966h-6.38v-.7372H143.69c.8135,0,1.0168-.3813,1.0168-.89a1.8929,1.8929,0,0,0-1.881-1.881c-1.0931,0-2.3386.9151-2.3386,3.4062,0,2.1861,1.093,3.3554,2.7961,3.3554a2.9843,2.9843,0,0,0,2.4149-1.22l.4067.305A3.5033,3.5033,0,0,1,142.8,84.6324c-2.3386,0-3.8383-1.6014-3.8383-4.22a4.1008,4.1008,0,0,1,3.9654-4.3976A3.1035,3.1035,0,0,1,146.13,79.3451Z" style="fill: #29499f"/>
      <path d="M149.1552,80.82v-.8389c0-.9405-.0255-1.4743-.0509-2.1606l-1.3472-.1526v-.61l2.4148-1.0422.28.1779.2033,2.1607v2.44c0,1.0676.0254,2.847.0509,3.61h-1.5506C149.13,83.6665,149.1552,81.8871,149.1552,80.82Zm-1.271,2.9995,1.881-.33h.4322l1.881.33v.61h-4.22v-.61Zm2.0081-5.3127h.9914l-.4067.1525c.5338-1.6268,1.6014-2.5928,2.6182-2.5928a1.4492,1.4492,0,0,1,1.2456.6355c0,.8134-.305,1.271-1.0168,1.271a1.6012,1.6012,0,0,1-1.0422-.4321l-.4575-.4068.8134-.1525a3.947,3.947,0,0,0-2.0336,2.72h-.6863l-.0255-1.1947Z" style="fill: #29499f"/>
      <path d="M155.3321,84.0224l-.0762-1.8811h.9405l.4576,2.0336-.8389-.3813v-.5847a3.3549,3.3549,0,0,0,2.11.7118c1.3219,0,1.9065-.5338,1.9065-1.3218,0-.7372-.5084-1.1185-1.6014-1.5l-.8134-.28c-1.271-.4576-2.0845-1.1439-2.0845-2.3386,0-1.271,1.0677-2.44,3-2.44a4.7215,4.7215,0,0,1,2.44.7117l-.0762,1.754h-.89l-.3559-1.7794.6355.28v.4576a2.7938,2.7938,0,0,0-1.754-.6609c-1.0422,0-1.6014.4575-1.6014,1.1693,0,.7626.4067,1.0422,1.6014,1.4743l.5338.2034c1.7286.6355,2.3895,1.4235,2.3895,2.5165,0,1.3219-1.1439,2.4657-3.3554,2.4657A4.7427,4.7427,0,0,1,155.3321,84.0224Z" style="fill: #29499f"/>
      <path d="M170.05,79.3451a3.2912,3.2912,0,0,1-.1271.966h-6.38v-.7372H167.61c.8134,0,1.0167-.3813,1.0167-.89a1.8929,1.8929,0,0,0-1.881-1.881c-1.0931,0-2.3386.9151-2.3386,3.4062,0,2.1861,1.093,3.3554,2.7961,3.3554a2.9843,2.9843,0,0,0,2.4149-1.22l.4067.305a3.5033,3.5033,0,0,1-3.3046,1.9827c-2.3386,0-3.8383-1.6014-3.8383-4.22a4.1008,4.1008,0,0,1,3.9654-4.3976A3.117,3.117,0,0,1,170.05,79.3451Z" style="fill: #29499f"/>
      <path d="M174.524,79.9044a20.4456,20.4456,0,0,1,2.6691-.7372v.6355a18.5787,18.5787,0,0,0-2.3132.6863c-1.5.5847-1.7032,1.2456-1.7032,1.754a1.2219,1.2219,0,0,0,1.3727,1.2964c.5847,0,.9151-.2288,1.9827-.966l.3559-.28.2542.3559-.5084.5084c-1.0168,1.0168-1.6014,1.5-2.669,1.5a2.1082,2.1082,0,0,1-2.3132-2.1607C171.677,81.5312,172.2108,80.7432,174.524,79.9044Zm1.9573,2.9741V78.913c0-1.6777-.4575-2.0844-1.6014-2.0844a4.1105,4.1105,0,0,0-1.5506.305l.7372-.5338-.4322,1.4489c-.1525.5339-.4321.8135-.89.8135a.7525.7525,0,0,1-.8134-.7118c.305-1.3218,1.6014-2.1352,3.3808-2.1352,1.8048,0,2.6691.8134,2.6691,2.9741v3.66c0,.7626.2542,1.0168.6355,1.0168a.864.864,0,0,0,.6609-.3813l.33.3559a1.5837,1.5837,0,0,1-1.5.89C177.1168,84.6324,176.4813,83.9461,176.4813,82.8785Z" style="fill: #29499f"/>
      <path d="M180.701,84.0224l-.0763-1.8811h.9406l.4575,2.0336-.8388-.3813v-.5847a3.3545,3.3545,0,0,0,2.11.7118c1.3218,0,1.9065-.5338,1.9065-1.3218,0-.7372-.5084-1.1185-1.6015-1.5l-.788-.28c-1.271-.4576-2.0844-1.1439-2.0844-2.3386,0-1.271,1.0676-2.44,2.9995-2.44a4.5629,4.5629,0,0,1,2.4149.7117l-.0763,1.754h-.89l-.3559-1.7794.6355.28v.4576a2.848,2.848,0,0,0-1.754-.6609c-1.0422,0-1.6014.4575-1.6014,1.1693,0,.7626.4067,1.0422,1.6014,1.4743l.5338.2034c1.7285.6355,2.3895,1.4235,2.3895,2.5165,0,1.3219-1.1439,2.4657-3.3554,2.4657A4.7423,4.7423,0,0,1,180.701,84.0224Z" style="fill: #29499f"/>
    </g>
    <path d="M111.56,92.1058V90.6569h4.728v1.9065h-.4067Zm4.7026,17.1075V111.12H111.534v-1.4489l4.3214-.4575Zm-2.0336-8.9986c0-3.1775,0-6.38-.1016-9.5578h4.245c-.1016,3.1012-.1016,6.3041-.1016,9.5578v1.093c0,3.4317,0,6.6346.1016,9.812h-4.245c.1016-3.1012.1016-6.304.1016-9.5578Zm10.1425-9.5324,1.8556,1.6523h-9.9645V90.6823h11.0321l.2288,5.4144h-2.2115Zm-1.1439,10.7525h-6.965V99.808h6.965Zm4.906,4.296-.2288,5.4144H116.2367v-1.6269h10.6l-1.8556,1.6269.9405-5.4144Zm-5.8719-5.4907.4575-3.1012h1.6269v6.965h-1.6269l-.4575-3.2537Z" style="fill: #29499f"/>
    <g>
      <path d="M132.9374,110.23a2.2509,2.2509,0,0,0,1.8811-1.1693l.1525.3813a2.5672,2.5672,0,0,1-2.364,1.6015c-1.754,0-2.9487-1.449-2.9487-3.5334,0-2.1861,1.3218-3.66,3.0758-3.66a2.6238,2.6238,0,0,1,2.2877,1.4743l-.1525.3559a2.8015,2.8015,0,0,0-1.9573-1.0422c-1.0676,0-1.9827.8389-1.9827,2.8216C130.9293,109.3912,131.7935,110.23,132.9374,110.23Zm3.9909.1271v.5084l-2.2369.1526-.1525-1.449V105.324l.0508-.1779v-3.5842l-1.22-.1525v-.5084l2.2369-.6609.2033.1271-.0508,2.059v8.4647l-.2542-.7371Z" style="fill: #29499f"/>
      <path d="M139.7245,108.3236c0,1.2455.3559,1.7031,1.1439,1.7031a2.978,2.978,0,0,0,2.1606-1.093h.3305v.7371h-.7372l.5084-.2288a3.3943,3.3943,0,0,1-2.7453,1.6015c-1.1439,0-1.8811-.6864-1.8557-2.5928l.0509-3.813.305.28-1.3472-.28v-.5084l2.1352-.2033.1526.1525-.0763,2.0081-.0254,2.237Zm3.33,2.669-.2033-1.6777.0508-4.6518.3051.28-1.3473-.28v-.5084l2.0844-.2033.1526.1525-.0509,2.0082v4.3467l-.3813-.3813,1.3473.28v.5083Z" style="fill: #29499f"/>
      <path d="M147.4266,107.3322c0,1.8048.9406,2.7962,2.2878,2.7962a2.2608,2.2608,0,0,0,1.9827-1.1185l.3559.1779a2.6045,2.6045,0,0,1-2.6691,1.8557c-1.9573,0-3.2283-1.3727-3.2283-3.5842a3.4042,3.4042,0,0,1,3.33-3.635,2.4931,2.4931,0,0,1,2.542,1.8556.6372.6372,0,0,1-.6609.5593.7577.7577,0,0,1-.788-.6864l-.3559-1.2455.6863.5338a2.981,2.981,0,0,0-1.3726-.3559C148.3163,104.5106,147.4266,105.4766,147.4266,107.3322Z" style="fill: #29499f"/>
      <path d="M155.7389,107.078a17.8733,17.8733,0,0,1,2.2369-.61v.5339c-.6609.1525-1.5.4067-1.9319.5592-1.2456.483-1.4235,1.0422-1.4235,1.4489a1.0089,1.0089,0,0,0,1.1439,1.0676c.483,0,.7626-.1779,1.6523-.8134l.305-.2288.2034.3051-.4322.4321c-.8388.8389-1.3472,1.2456-2.2369,1.2456a1.7673,1.7673,0,0,1-1.9319-1.8048C153.3494,108.4253,153.807,107.79,155.7389,107.078Zm1.6268,2.4657v-3.3045c0-1.3981-.3813-1.754-1.3472-1.754a3.59,3.59,0,0,0-1.2964.2542l.61-.4576-.3559,1.22c-.1271.4575-.3559.6863-.7372.6863a.5966.5966,0,0,1-.6609-.5846,2.6312,2.6312,0,0,1,2.8216-1.7794c1.5,0,2.2369.6863,2.2369,2.4911v3.05c0,.6355.2033.8388.5338.8388.2542,0,.3813-.1271.5592-.33l.28.305a1.3472,1.3472,0,0,1-1.2455.7372C157.9,111.0181,157.3657,110.4334,157.3657,109.5437Z" style="fill: #29499f"/>
      <path d="M163.5173,110.3063a1.5114,1.5114,0,0,0,.9659-.4067l.3305.3813a2.0731,2.0731,0,0,1-1.7031.7372,1.4882,1.4882,0,0,1-1.6523-1.6523c0-.3559.0254-.6609.0254-1.22v-3.3808H160.289v-.6355l1.7793-.2287-.5846.4829.4575-2.3386h.8643l-.1017,2.542v4.6518C162.7038,110.0013,163.0343,110.3063,163.5173,110.3063Zm1.1693-6.2786v.7625h-2.5674v-.7625Z" style="fill: #29499f"/>
      <path d="M166.5676,110.8655c.0254-.6609.0509-2.1352.0509-3.0249V107.18c0-.788-.0254-1.2456-.0509-1.8048l-1.1438-.1271v-.5084l2.2369-.8643.2288.1526-.0509,1.9573v1.9064c0,.89.0254,2.3641.0509,3.025l-1.3219-.0509Zm2.2624-.5084v.5084h-3.3554v-.5084l1.5506-.28h.33Zm-2.6182-9.0239a.9082.9082,0,0,1,.9659-.9151.8947.8947,0,0,1,.966.9151.9084.9084,0,0,1-.966.9151A.9234.9234,0,0,1,166.2118,101.3332Z" style="fill: #29499f"/>
      <path d="M170.0755,107.4847a3.3155,3.3155,0,1,1,3.3046,3.5842A3.31,3.31,0,0,1,170.0755,107.4847Zm5.2365,0c0-1.9573-.7117-2.9741-1.9573-2.9741s-1.9573,1.0422-1.9573,2.9741.6863,2.9233,1.9573,2.9233C174.6,110.408,175.312,109.4166,175.312,107.4847Z" style="fill: #29499f"/>
      <path d="M179.0741,110.8655c.0254-.6609.0509-2.1352.0509-3.0249v-.6863c0-.788-.0255-1.2456-.0509-1.8048l-1.1439-.1271v-.5084l2.0082-.8643.2288.1525.1525,1.6523v2.1861c0,.89.0254,2.364.0508,3.0249Zm2.2878-.5084v.5084h-3.3554v-.5084l1.5506-.28h.33Zm3.3554-3.8383v1.3472c0,.9151.0254,2.364.0508,3.025h-1.2964c.0254-.661.0509-2.11.0509-3.025v-1.22c0-1.3219-.3559-1.754-1.1693-1.754a3.0819,3.0819,0,0,0-2.11.9914h-.305v-.6609h.7372l-.61.2542a3.8331,3.8331,0,0,1,2.847-1.6269C184.1072,103.85,184.7173,104.6377,184.7173,106.5188Zm-.4067,3.5587,1.4489.28v.5084h-3.3554v-.5084l1.5506-.28Z" style="fill: #29499f"/>
    </g>
    <path d="M123.7863,134.7346c0-1.9827-1.1693-2.8724-3.7621-3.8892l-1.4235-.5846c-3.94-1.6015-6.3549-3.5588-6.3549-7.1684,0-3.9909,3.4317-6.4058,8.4139-6.4058a11.3455,11.3455,0,0,1,6.2787,1.754l-.2542,4.55h-2.72l-.9151-5.1093,2.5674,1.0422v1.7031c-1.83-1.4489-3.1521-2.0844-5.0077-2.0844-2.39,0-4.2451,1.271-4.2451,3.4571,0,1.9573,1.2964,3.05,3.635,3.9654l1.5252.6355c4.6264,1.83,6.482,3.7367,6.482,7.0667,0,3.9909-3.3554,6.6091-8.8461,6.6091a15.2785,15.2785,0,0,1-7.3208-1.7794l.2033-4.8806h2.7454l.9151,5.3636-2.542-.89v-1.6269c2.2369,1.3473,3.5842,1.9828,5.9228,1.9828C122.007,138.395,123.7863,136.9715,123.7863,134.7346Z" style="fill: #29499f"/>
    <g>
      <path d="M136.5724,133.7687a3.1059,3.1059,0,0,1-.1271.9405h-6.1515v-.7118h3.9146c.788,0,.9914-.3812.9914-.8642a1.7952,1.7952,0,0,0-1.8048-1.8048c-1.0423,0-2.237.89-2.237,3.2791,0,2.11,1.0422,3.2283,2.6945,3.2283a2.8523,2.8523,0,0,0,2.3132-1.1693l.4067.3051a3.3634,3.3634,0,0,1-3.1774,1.9064c-2.237,0-3.6859-1.5506-3.6859-4.0671a3.9547,3.9547,0,0,1,3.813-4.2451A3.0056,3.0056,0,0,1,136.5724,133.7687Z" style="fill: #29499f"/>
      <path d="M139.47,135.1922v-.788c0-.9152-.0254-1.4235-.0509-2.0845l-1.3218-.1525v-.5846l2.3132-1.0168.2542.1525.1779,2.0844v2.364c0,1.0423.0254,2.7454.0509,3.4825h-1.4744C139.47,137.9375,139.47,136.209,139.47,135.1922Zm-1.22,2.8978,1.83-.33h.4322l1.83.33v.5847H138.301l-.0509-.5847Zm1.9573-5.1348h.966l-.4067.1526c.5084-1.5761,1.5506-2.5166,2.5165-2.5166a1.3407,1.3407,0,0,1,1.1948.61c0,.788-.3051,1.22-.9914,1.22a1.425,1.425,0,0,1-1.0168-.4321l-.4321-.4067.788-.1526a3.722,3.722,0,0,0-1.9574,2.6183h-.6609v-1.0931Z" style="fill: #29499f"/>
      <path d="M146.5115,131.71l-1.6268-.28v-.6355h4.0163v.6355l-1.9828.28Zm.61-.9151,2.5674,6.7108-.7118.9151,2.6691-7.6259h.9151l-3.025,7.9817h-.7117l-3.3554-7.9817Zm4.5247.9151-1.6269-.28v-.6355h3.1267v.6355l-1.1693.28Z" style="fill: #29499f"/>
      <path d="M155.2813,138.6747c.0254-.7372.0509-2.4658.0509-3.4825V134.43c0-.9151-.0255-1.4235-.0509-2.0844l-1.3218-.1526v-.5846l2.5674-1.0168.2542.1525-.0509,2.2369v2.2116c0,1.0422.0254,2.7453.0509,3.4825Zm2.5928-.5847v.5847H154.01V138.09l1.8048-.33h.3813ZM154.9,127.6679a1.0357,1.0357,0,0,1,1.1185-1.0422,1.0448,1.0448,0,1,1-1.1185,1.0422Z" style="fill: #29499f"/>
      <path d="M160.7465,134.6075c0,2.0844,1.0931,3.2283,2.6437,3.2283a2.5916,2.5916,0,0,0,2.2878-1.2964l.4067.2034a3.0069,3.0069,0,0,1-3.1012,2.1352c-2.2624,0-3.7113-1.6014-3.7113-4.1434a3.9271,3.9271,0,0,1,3.8384-4.1942,2.8345,2.8345,0,0,1,2.9232,2.1606.7214.7214,0,0,1-.7626.6355c-.5592,0-.788-.33-.9151-.788l-.4067-1.4489.788.61a3.3745,3.3745,0,0,0-1.6014-.4322C161.7633,131.3284,160.7465,132.4468,160.7465,134.6075Z" style="fill: #29499f"/>
      <path d="M174.524,133.7687a3.1091,3.1091,0,0,1-.1271.9405h-6.1516v-.7118H172.16c.788,0,.9913-.3812.9913-.8642a1.7952,1.7952,0,0,0-1.8048-1.8048c-1.0422,0-2.2369.89-2.2369,3.2791,0,2.11,1.0422,3.2283,2.6945,3.2283a2.8523,2.8523,0,0,0,2.3132-1.1693l.4067.3051a3.3636,3.3636,0,0,1-3.1775,1.9064c-2.2369,0-3.6858-1.5506-3.6858-4.0671a3.9546,3.9546,0,0,1,3.8129-4.2451A2.9918,2.9918,0,0,1,174.524,133.7687Z" style="fill: #29499f"/>
      <path d="M176.3288,138.2679l-.0763-1.83h.9151l.4322,1.9573-.8135-.3813v-.5592a3.27,3.27,0,0,0,2.0336.6863c1.271,0,1.8557-.5083,1.8557-1.2709,0-.7118-.483-1.0677-1.5506-1.449l-.7626-.28c-1.22-.4321-2.0082-1.093-2.0082-2.2369,0-1.22,1.0422-2.3386,2.8979-2.3386a4.1347,4.1347,0,0,1,2.3131.6863l-.0762,1.6777h-.8643l-.3559-1.7031.61.28v.4321a2.616,2.616,0,0,0-1.6777-.6354c-1.0168,0-1.5506.4321-1.5506,1.1184,0,.7372.4067,1.0168,1.5506,1.4235l.5084.178c1.6523.61,2.2878,1.3726,2.2878,2.44,0,1.2709-1.0931,2.3894-3.2283,2.3894A4.8731,4.8731,0,0,1,176.3288,138.2679Z" style="fill: #29499f"/>
    </g>
  </g>
  <g>
    <path d="M93.7317,128.1921C77.4885,152.01,48.23,160.3989,28.4539,146.8756s-22.7-43.7727-6.4566-67.6163S67.4985,47.0526,87.3005,60.5758,109.9748,104.3739,93.7317,128.1921Z" style="fill: url(#linear-gradient)"/>
    <path d="M65.6175,54.17c-25.1146,0-49.1617,22.1659-53.6355,49.4158s12.3031,49.4158,37.3923,49.4158S98.536,130.8358,103.01,103.5859C107.5091,76.336,90.7321,54.17,65.6175,54.17Zm-6.66,24.2757A55.6858,55.6858,0,0,1,47.3407,76.641c.8643-1.576,1.7794-3.1012,2.7454-4.5247,3.9146-5.8719,8.21-10.0153,11.82-11.5151Zm-.9405,5.7957-2.72,16.472H38.6218a87.5988,87.5988,0,0,1,5.9736-18.6326A59.2231,59.2231,0,0,0,58.017,84.2415Zm-3.6858,22.2677-2.72,16.4465a66.7233,66.7233,0,0,0-14.108,2.1607,75.131,75.131,0,0,1,.1526-18.6327l16.6753.0255Zm-3.6605,22.2422L47.7475,146.596c-3.1012-1.5-6.05-5.6178-8.0327-11.5151a45.0775,45.0775,0,0,1-1.2455-4.5247A64.5776,64.5776,0,0,1,50.6707,128.7514Zm5.3382,0a55.6838,55.6838,0,0,1,11.6167,1.8048c-.8642,1.576-1.7793,3.1012-2.7453,4.5247-3.9146,5.8719-8.2105,10.0153-11.82,11.5151Zm.9659-5.7957,2.72-16.472H76.37a87.6,87.6,0,0,1-5.9736,18.6327A57.8376,57.8376,0,0,0,56.9748,122.9557Zm3.66-22.2422,2.72-16.472a66.73,66.73,0,0,0,14.108-2.1606,75.13,75.13,0,0,1-.1526,18.6326Zm3.66-22.2677,2.9486-17.8446c3.1012,1.5,6.05,5.6178,8.0327,11.5151a45.0509,45.0509,0,0,1,1.2455,4.5247A64.5367,64.5367,0,0,1,64.2957,78.4458Zm16.0906-9.1a35.2645,35.2645,0,0,0-3.152-7.0158A31.985,31.985,0,0,1,89.97,71.5317,58.5451,58.5451,0,0,1,81.9369,75.04,50.0858,50.0858,0,0,0,80.3863,69.3456Zm-34.5453,0c-1.1947,1.8048-2.3386,3.6859-3.4062,5.6686a41.4428,41.4428,0,0,1-6.8634-3.5079,49.432,49.432,0,0,1,15.76-9.2019A59.4984,59.4984,0,0,0,45.841,69.3456Zm-6.0753,11.083a92.6213,92.6213,0,0,0-6.4566,20.2849h-15.43a54.342,54.342,0,0,1,13.1929-24.86A44.02,44.02,0,0,0,39.7657,80.4286Zm-7.4226,26.0806a80.9879,80.9879,0,0,0-.2287,20.2594,65.9827,65.9827,0,0,0-10.1933,4.601,40.2127,40.2127,0,0,1-5.0331-24.86ZM33.03,132.183a50.1528,50.1528,0,0,0,1.5506,5.6686,35.2645,35.2645,0,0,0,3.152,7.0158,31.7265,31.7265,0,0,1-12.71-9.2019A64.5291,64.5291,0,0,1,33.03,132.183Zm36.0959,5.6686c1.1947-1.8048,2.3386-3.6858,3.4062-5.6686a41.4417,41.4417,0,0,1,6.8633,3.5079,49.4326,49.4326,0,0,1-15.76,9.202A56.4473,56.4473,0,0,0,69.1254,137.8516Zm6.1007-11.1084a92.6213,92.6213,0,0,0,6.4566-20.2849h15.43A54.5558,54.5558,0,0,1,83.92,131.3442,46.25,46.25,0,0,0,75.2261,126.7432Zm7.4226-26.03a81.1908,81.1908,0,0,0,.2287-20.2849,65.9784,65.9784,0,0,0,10.1933-4.601,40.2129,40.2129,0,0,1,5.0331,24.8605H82.6487Z" style="fill: #fff;opacity: 0.10999999940395355;isolation: isolate"/>
    <path d="M85.5465,55.0852a8.3123,8.3123,0,1,1-8.3122-8.3123A8.2992,8.2992,0,0,1,85.5465,55.0852Z" style="fill: #f60"/>
    <path d="M63.7619,119.524a11.1087,11.1087,0,0,1-8.0327-3.7112c1.271-1.0677,2.3641-2.059,3.2792-2.9487,13.8029-13.3962,20.0053-27.5295,20.0053-36.706a13.7082,13.7082,0,0,0-.966-5.4653,8.157,8.157,0,0,0-1.576-2.4657q-6.177-4.0416-13.04,1.271c-8.236,6.965-15.8873,22.9286-16.98,35.0792-.0763,1.093-.1526,2.1352-.1526,3.152a24.9691,24.9691,0,0,0,.89,6.6091,82.4711,82.4711,0,0,1-25.2417,11.9473v6.787a90.5529,90.5529,0,0,0,28.14-12.9132,17.001,17.001,0,0,0,12.4048,6.0753,32.2455,32.2455,0,0,0,25.2417-9.5832v-9.6849C84.0468,111.8981,75.8108,120.5662,63.7619,119.524ZM53.34,109.3307a20.3083,20.3083,0,0,1-.1271-2.2115c0-.8388.0508-1.7285.1271-2.6436C54.687,89.7068,66.1005,73.1586,70.4981,72.701c.2287-.0254.6863-.0763,1.1439,1.0168a8.5367,8.5367,0,0,1,.5338,3.2283c0,6.66-4.906,18.8614-17.7684,31.3933C54.0515,108.6444,53.6957,109,53.34,109.3307Z" style="fill: #fff"/>
  </g>
</svg>
