<svg xmlns="http://www.w3.org/2000/svg" width="165.1959" height="58.2448" viewBox="0 0 165.1959 58.2448">
  <g id="Layer_2" data-name="Layer 2">
    <g id="Layer_2-2" data-name="Layer 2">
      <rect x="7.7085" y="8.2494" width="49.9954" height="49.9954" rx="24.9977" style="fill: #274690"/>
      <g>
        <path d="M26.4543,23.14C19.18,18.8452,6.8529,19.2951,1.8006,29.2054S3.29,48.6717,9.5734,51.1211C17.38,54.164,22.59,48.35,26.7708,49.4148a4.3213,4.3213,0,0,1,3.4407,5.5982s2.2554-.898,4.1864-4.3682C37.7565,44.6092,38.2571,30.1073,26.4543,23.14Z" style="fill: #9dc3c2"/>
        <path d="M42.4007,16.8353c4.4087-4.94,13.59-7.5679,19.5462-1.3343,6.0234,6.3039,3.6963,15.1684-.785,17.9719-4.6461,2.9065-10.488,1.46-13.65,2.6578a3.5328,3.5328,0,0,0-2.2842,4.9034,13.9981,13.9981,0,0,1-4.0746-3.8167C38.2813,32.8579,35.919,24.0982,42.4007,16.8353Z" style="fill: #77a6b6"/>
        <path d="M23.7863,6.6825C25.3825,2.2139,30.24-1.7,35.9832.7614s6.54,9.0468,4.5231,12.2533C38.5156,16.18,34.2925,16.8625,32.47,18.46a3.9007,3.9007,0,0,0-1.0031,4.4241S20.1733,16.7976,23.7863,6.6825Z" style="fill: #4d7298"/>
      </g>
      <g>
        <path d="M7.3117,35.3813l-.0887-.1766a1.4172,1.4172,0,0,0-.483-.5261,1.4122,1.4122,0,0,0-.6376-.3356,1.42,1.42,0,0,0-.7477-.0335,1.3955,1.3955,0,0,0-.6971.2225l-.38.2932a1.8727,1.8727,0,0,0-.4822.8274l-.0669.4984a1.866,1.866,0,0,0,.2559.9464l.0888.1766a1.4177,1.4177,0,0,0,.4829.5261,1.4131,1.4131,0,0,0,.6376.3356,1.42,1.42,0,0,0,.7477.0334,1.3945,1.3945,0,0,0,.6971-.2225l.38-.2931a1.8738,1.8738,0,0,0,.4822-.8274l.067-.4985a1.8668,1.8668,0,0,0-.256-.9463Z" style="fill: #fff"/>
        <path d="M9.199,31.372c.5094-2.0744,3.3013-3.2111,5.3731-3.5733.35-.0612-.2031.0185.1493-.0259.1443-.0182.29-.03.4345-.041q.49-.0367.9815-.0316a7.2391,7.2391,0,0,1,1.6663.1682A8.5414,8.5414,0,0,1,21.1345,29.29a1.8753,1.8753,0,0,0,1.8927-3.238,12.8681,12.8681,0,0,0-9.6665-1.83c-3.2006.6189-6.9476,2.7725-7.7778,6.1532-.5754,2.3433,3.04,3.3431,3.6161.9969Z" style="fill: #fff"/>
        <path d="M50.4085,14.3633c-5.5348.1195-9.8952,5.7157-9.3245,11.0847a1.2865,1.2865,0,0,0,1.25,1.25,1.2583,1.2583,0,0,0,1.25-1.25,7.3173,7.3173,0,0,1,.31-3.2255,8.5671,8.5671,0,0,1,1.4668-2.6814,7.61,7.61,0,0,1,2.3613-1.9529,6.2123,6.2123,0,0,1,2.6863-.7249,1.2508,1.2508,0,0,0,0-2.5Z" style="fill: #fff"/>
        <path d="M43.0088,30.3829a1.2507,1.2507,0,0,0,0-2.5,1.2507,1.2507,0,0,0,0,2.5Z" style="fill: #fff"/>
        <path d="M31.3732,1.2066h-.1008a.9411.9411,0,0,0-.4816.1077.9366.9366,0,0,0-.4023.2585.9367.9367,0,0,0-.2584.4022.9411.9411,0,0,0-.1077.4816l.0447.3323a1.2475,1.2475,0,0,0,.3214.5516l.253.1955a1.2451,1.2451,0,0,0,.6309.1706h.1008a.9418.9418,0,0,0,.4816-.1076.9366.9366,0,0,0,.4023-.2585.9366.9366,0,0,0,.2585-.4023.9418.9418,0,0,0,.1076-.4816l-.0446-.3323a1.2489,1.2489,0,0,0-.3215-.5515l-.253-.1955a1.2436,1.2436,0,0,0-.6309-.1707Z" style="fill: #fff"/>
        <path d="M27.8676,4.0937C24.6657,6.6148,23.7,11.917,26.22,15.2269a1.2909,1.2909,0,0,0,1.71.4484,1.2584,1.2584,0,0,0,.4484-1.71,6.4072,6.4072,0,0,1-.6722-1.1l-.0527-.1164q.0537.1243.0059.0034c-.0361-.1-.0726-.1993-.1049-.3006a6.3389,6.3389,0,0,1-.1624-.6151c-.0175-.0832-.0317-.1669-.0477-.25-.0751-.3911.0071.1167-.0156-.11-.0213-.2124-.034-.425-.0367-.6384s.0044-.4279.02-.6413c.008-.1068.0176-.2137.0307-.32-.0217.1763.01-.0468.0218-.1134A7.7742,7.7742,0,0,1,27.6739,8.58c.0352-.1012.0727-.2015.1117-.3013q.0483-.1207-.0026.0025l.0529-.1167c.0932-.1918.1865-.3824.2921-.5677a5.3323,5.3323,0,0,1,1.5073-1.7349,1.257,1.257,0,0,0,0-1.7678,1.2811,1.2811,0,0,0-1.7677,0Z" style="fill: #fff"/>
      </g>
      <g>
        <path d="M154.15,40.95c.6955.029,1.3556.0455,2.0105.0861a15.8144,15.8144,0,0,1,4.192.6646,5.4488,5.4488,0,0,1,1.203.5874,2.5566,2.5566,0,0,1,1.0913,2.5329,4.8778,4.8778,0,0,1-2.8161,3.9745,10.2916,10.2916,0,0,1-3.7639,1.1568,16.492,16.492,0,0,1-5.774-.2072,6.912,6.912,0,0,1-1.74-.6514c-1.6231-.8837-1.9424-2.7842-.8269-4.6269a7.8884,7.8884,0,0,1,2.0626-2.179,1.2292,1.2292,0,0,0,.341-.4037c.494-.9764.9725-1.9586,1.4557-2.9391.0427-.0868.0827-.1745.09-.19a13.15,13.15,0,0,1-1.36-1.1809,4.0587,4.0587,0,0,1-.7744-3.597,6.3127,6.3127,0,0,1,5.1517-5.1313,8.8482,8.8482,0,0,1,5.1491.298.5394.5394,0,0,0,.29.0156q2.3917-.5,4.7831-1.0095c.0843-.0178.1691-.0288.2806-.0474l-.1374,3.438H162.543c.09.353.1967.6645.2488.9923a5.882,5.882,0,0,1-4.6745,6.5116,11.6647,11.6647,0,0,1-3.081.3421.355.355,0,0,0-.4087.2949C154.4883,40.0961,154.319,40.5059,154.15,40.95Zm-.3025,3.2453c-.7475,0-1.2821-.0031-1.818.0031a.4575.4575,0,0,0-.2644.0715,2.1226,2.1226,0,0,0-.8721,1.723,1.17,1.17,0,0,0,.9023,1.0869.9464.9464,0,0,0,.231.0752c.7027.0806,1.3994.1944,2.1124.2228a8.3884,8.3884,0,0,0,2.7944-.3207,2.6747,2.6747,0,0,0,1.3037-.7389c.4737-.535.4351-1.1707-.1142-1.4548a2.7216,2.7216,0,0,0-.8938-.2994C156.04,44.4137,154.8409,44.3,153.8478,44.1949Zm2.7248-12.3963c-.4229.0728-.8034.1062-1.1747.2082a2.5367,2.5367,0,0,0-1.8957,2.0954,1.7194,1.7194,0,0,0,1.1686,2.0991,3.7274,3.7274,0,0,0,2.5564-.0662,2.4579,2.4579,0,0,0,1.623-2.0462,1.672,1.672,0,0,0-1.0816-2.0319A9.5041,9.5041,0,0,0,156.5726,31.7986Z" style="fill: #274690"/>
        <path d="M87.6865,49.6937l.0552-.36c.7718-5.0334,1.5632-10.0668,2.3041-15.1.24-1.63.3477-3.2594.5164-4.8891.006-.0583.0175-.1168.032-.2112l3.9259-.3907-.1615,1.9361c.147-.1121.2656-.2035.3852-.2934a8.091,8.091,0,0,1,5.7341-1.6723,6.1272,6.1272,0,0,1,5.7519,6.1319,9.3213,9.3213,0,0,1-4.9582,8.4567c-2.78,1.4806-6.2216,1.2762-8.1983-.5307-.0279-.0255-.0619-.0446-.1286-.092l-1.0756,7.0145Zm6.21-13.2365A3.2851,3.2851,0,0,0,97.18,40.5251a4.7085,4.7085,0,0,0,4.6932-3.9639,3.3109,3.3109,0,0,0-3.3521-4.1279A4.7255,4.7255,0,0,0,93.896,36.4572Z" style="fill: #274690"/>
        <path d="M70.7468,38.5148a9.7109,9.7109,0,0,0,2.5389,1.4633,10.8969,10.8969,0,0,0,6.0963.59,4.17,4.17,0,0,0,1.924-.8535c.8673-.7095,1.3177-2.359.24-3.196a5.8591,5.8591,0,0,0-1.9894-.9414c-.9386-.2742-1.9-.4964-2.8363-.7757a7.498,7.498,0,0,1-3.3239-1.8307A4.26,4.26,0,0,1,72.25,29.3863,7.1448,7.1448,0,0,1,77.605,23.23a12.8207,12.8207,0,0,1,4.786-.4851,12.296,12.296,0,0,1,3.2994.634,10.5581,10.5581,0,0,1,1.0576.4644.2673.2673,0,0,1,.13.22c-.0645,1.2682-.14,2.5375-.2145,3.8066a.7806.7806,0,0,1-.0258.1049c-.1778-.1093-.3427-.215-.512-.3142a10.38,10.38,0,0,0-6.99-1.2216,3.721,3.721,0,0,0-1.65.6753c-.8978.6509-1.2739,2.2427-.2717,2.8741a6.5955,6.5955,0,0,0,1.4528.6787c1.18.3868,2.3946.6983,3.5748,1.0841a8.0383,8.0383,0,0,1,2.829,1.5268A4.3474,4.3474,0,0,1,86.46,37.2391a7.1191,7.1191,0,0,1-1.1576,3.3621,8.07,8.07,0,0,1-4.1587,3.0832,12.6389,12.6389,0,0,1-4.9669.6466,14.1709,14.1709,0,0,1-4.853-1.0515c-.2806-.1194-.6593-.1852-.7941-.41-.1328-.2215-.0216-.6124-.0033-.93.06-1.0407.1261-2.0819.1907-3.123C70.722,38.7327,70.7333,38.6487,70.7468,38.5148Z" style="fill: #274690"/>
        <path d="M131.9375,29.1369l3.9635-.3942-.1833,2.0691a.79.79,0,0,0,.1151-.08,6.6332,6.6332,0,0,1,3.9385-2.0263,6.436,6.436,0,0,1,4.0248.5381,4.68,4.68,0,0,1,2.4758,4.1727,9.1684,9.1684,0,0,1-.0819,1.87c-.4127,2.8318-.8586,5.6637-1.2926,8.4956l-.03.1931H140.686l.0466-.3042q.5927-3.8652,1.1863-7.73a3.6627,3.6627,0,0,0-.1983-2.1A2.65,2.65,0,0,0,138.8,32.4282a3.9223,3.9223,0,0,0-3.359,3.2228c-.1222.6369-.2052,1.2754-.3032,1.9132q-.4687,3.0487-.9353,6.0974l-.0484.3158h-4.1933C130.6178,39.0448,131.6543,34.1051,131.9375,29.1369Z" style="fill: #274690"/>
        <path d="M112.5705,43.9781h-4.1938c.6641-4.99,1.7245-9.9744,1.9623-14.9713l3.8912-.33-.2009,2.79a5.8861,5.8861,0,0,1,6.0822-2.786l-.84,3.9895c-.1806-.0281-.339-.0607-.5016-.0766a4.4273,4.4273,0,0,0-3.08.72,4.6878,4.6878,0,0,0-1.85,2.7487,10.5192,10.5192,0,0,0-.2327,1.17q-.5,3.2136-.9879,6.4273Z" style="fill: #274690"/>
        <path d="M125.5064,43.9857h-4.153l1.7593-11.4739h-1.8751l.6994-3.5229h5.8689Z" style="fill: #274690"/>
        <path d="M128.8705,24.2115a2.9894,2.9894,0,0,1-2.9684,2.4757,2.14,2.14,0,0,1-2.1622-2.6323,3.01,3.01,0,0,1,2.9585-2.4624A2.1315,2.1315,0,0,1,128.8705,24.2115Z" style="fill: #274690"/>
      </g>
    </g>
  </g>
</svg>
