<svg xmlns="http://www.w3.org/2000/svg" width="158.5" height="158.5" viewBox="0 0 158.5 158.5">
  <g id="Layer_2" data-name="Layer 2">
    <g id="Layer_1-2" data-name="Layer 1">
      <path d="M125.4792,0H33.0208A33.0244,33.0244,0,0,0,0,33.0208v92.4584A33.0244,33.0244,0,0,0,33.0208,158.5h92.4584A33.02,33.02,0,0,0,158.5,125.4792V33.0208A33.02,33.02,0,0,0,125.4792,0ZM105.6667,46.2292H92.96c-4.0616,0-7.1061,1.6642-7.1061,5.8711v7.3372h19.8125L104.0949,79.25H85.8542v52.8333H66.0417V79.25H52.8333V59.4375H66.0417v-12.7c0-13.3536,7.0268-20.321,22.857-20.321h16.768Z" style="fill: #fff"/>
    </g>
  </g>
</svg>
