<svg xmlns="http://www.w3.org/2000/svg" width="158.5" height="158.5" viewBox="0 0 158.5 158.5">
  <g id="Layer_2" data-name="Layer 2">
    <g id="Layer_1-2" data-name="Layer 1">
      <path d="M125.4792,0H33.0208A33.0244,33.0244,0,0,0,0,33.0208v92.4584A33.0244,33.0244,0,0,0,33.0208,158.5h92.4584A33.02,33.02,0,0,0,158.5,125.4792V33.0208A33.02,33.02,0,0,0,125.4792,0ZM52.8333,125.4792H33.0208V52.8333H52.8333Zm-9.9062-81.02A11.65,11.65,0,1,1,54.4844,32.81,11.6069,11.6069,0,0,1,42.9271,44.4593Zm89.1562,81.02H112.2708v-37.01c0-22.2428-26.4166-20.5588-26.4166,0v37.01H66.0417V52.8333H85.8542V64.49c9.2194-17.0784,46.2291-18.34,46.2291,16.3519Z" style="fill: #fff"/>
    </g>
  </g>
</svg>
