<svg xmlns="http://www.w3.org/2000/svg" width="187.9001" height="153.5909" viewBox="0 0 187.9001 153.5909">
  <g id="Layer_2" data-name="Layer 2">
    <g id="Layer_1-2" data-name="Layer 1">
      <path d="M176.5,15.0266a33.625,33.625,0,0,0,6.3-12c-.9.5-1.6.8-2.2,1.1a75.2119,75.2119,0,0,1-20.4,7.7,3.1517,3.1517,0,0,1-3.2-.9c-10.3-9.6-22.5-13-36.1-9.7-13.2,3.3-22.2,11.6-27.1,24.4a37.762,37.762,0,0,0-1.6,20.5c.1.7.6,1.5-.9,1.4a115.6324,115.6324,0,0,1-28-5.4,110.6593,110.6593,0,0,1-44.9-28.4c-2-2.1-3.9-4.3-5.9-6.5a38.6875,38.6875,0,0,0-4.2,28c2.2,9.8,7.6,17.5,16.1,23.6a39.688,39.688,0,0,1-17.4-4.8,38.2022,38.2022,0,0,0,8.5,24.7,38.7558,38.7558,0,0,0,22.1,13.7c-.4.2-.5.2-.6.3a3.5949,3.5949,0,0,1-1.1.2,37.1962,37.1962,0,0,1-14.1.4c-1-.2-1.2,0-.8,1q7.35,19.05,27,24.6a45.66,45.66,0,0,0,8.7,1.2c-17.1,12.9-35.9,18.1-56.7,16.2a86.5821,86.5821,0,0,0,13.3,7.4,111.2052,111.2052,0,0,0,42,9.8,111.2635,111.2635,0,0,0,45.7-7.8,103.7491,103.7491,0,0,0,46.2-36.3c14.9-20.8,22.3-43.9,21.7-69.6a2.5257,2.5257,0,0,1,1.2-2.4,76.1555,76.1555,0,0,0,13.6-13c1.5-1.8,2.8-3.7,4.2-5.6a81.6778,81.6778,0,0,1-21.1,5.3A52.3644,52.3644,0,0,0,176.5,15.0266Z" style="fill: #fff"/>
    </g>
  </g>
</svg>
