<svg id="Layer_1" data-name="Layer 1" xmlns="http://www.w3.org/2000/svg" width="138.9337" height="41.7802" viewBox="0 0 138.9337 41.7802">
  <g>
    <path d="M47.4466,16.6377l.1665.111a5.1693,5.1693,0,0,0,3.386.8326,2.296,2.296,0,0,0,1.0546-.2775.9226.9226,0,0,0,.3331-1.2767.669.669,0,0,0-.2776-.2775,2.9889,2.9889,0,0,0-1.1656-.4441c-.4441-.111-.9437-.222-1.4432-.3886a3.8393,3.8393,0,0,1-1.0547-.555,2.1386,2.1386,0,0,1-.9436-1.61,2.4912,2.4912,0,0,1,.7216-2.1093A3.0577,3.0577,0,0,1,49.7779,9.81a5.9791,5.9791,0,0,1,2.22-.0555,4.9989,4.9989,0,0,1,1.5542.444c.0555,0,.0555.0555.111.111.0555.5551.111,1.11.1666,1.61v.0555a5.41,5.41,0,0,0-3.4415-.6661,2.4028,2.4028,0,0,0-.6661.2775.7919.7919,0,0,0-.111,1.11l.1665.1665a3.3983,3.3983,0,0,0,.6661.2775c.6106.222,1.2212.3331,1.8318.5551a4.3057,4.3057,0,0,1,1.2211.6661,2.0512,2.0512,0,0,1,.7771,1.61,3.1969,3.1969,0,0,1-.2775,1.61,2.9638,2.9638,0,0,1-1.6652,1.3877,5.6771,5.6771,0,0,1-2.1648.2775,7.5194,7.5194,0,0,1-2.22-.444c-.3886-.1666-.3886-.1666-.4441-.6106a11.6873,11.6873,0,0,1-.111-1.3877A.2039.2039,0,0,0,47.4466,16.6377Z" style="fill: #274690"/>
    <path d="M61.934,16.2491H57.2159a1.9878,1.9878,0,0,0,.222.6106,1.6128,1.6128,0,0,0,1.3322.7771,4.0573,4.0573,0,0,0,2.8864-.6106l.111-.0555a4.2861,4.2861,0,0,0-.111.8326c-.0555.2776-.0555.4441-.111.6661,0,.0555-.0555.111-.111.1665a5.9421,5.9421,0,0,1-1.4987.5,5.0154,5.0154,0,0,1-2.22-.111,3.1446,3.1446,0,0,1-2.3313-2.72,3.4355,3.4355,0,0,1,3.1639-4.052,3.4566,3.4566,0,0,1,1.9427.4441,3.0645,3.0645,0,0,1,1.3877,1.9427,6.0946,6.0946,0,0,1,.111,1.4432A.2039.2039,0,0,1,61.934,16.2491ZM60.2133,15.028a1.391,1.391,0,0,0-1.3877-1.2767,1.5441,1.5441,0,0,0-1.4987,1.2767Z" style="fill: #274690"/>
    <path d="M76.8655,16.2491H72.1474a1.4991,1.4991,0,0,0,.5551.9436,1.8076,1.8076,0,0,0,1.0546.4441,4.359,4.359,0,0,0,2.3868-.3885,2.2467,2.2467,0,0,1,.5-.2776,1.8887,1.8887,0,0,0-.0555.5551l-.1666.9991c0,.0555-.0555.111-.111.1665a6.787,6.787,0,0,1-1.4987.5,5.0154,5.0154,0,0,1-2.22-.111A3.1409,3.1409,0,0,1,70.26,16.4156a3.282,3.282,0,0,1,.5-2.4978,3.4752,3.4752,0,0,1,4.6071-1.11,3.15,3.15,0,0,1,1.3877,2.0537,4.93,4.93,0,0,1,.0555,1.2767C76.921,16.1381,76.8655,16.1936,76.8655,16.2491ZM75.0893,15.028a1.391,1.391,0,0,0-1.3877-1.2767,1.55,1.55,0,0,0-1.5542,1.2767Z" style="fill: #274690"/>
    <path d="M80.0294,12.3081l.0555.9436.0555-.0555a2.2529,2.2529,0,0,1,1.61-.8881,2.9659,2.9659,0,0,1,1.8317.222A2.4692,2.4692,0,0,1,84.97,14.4174a4.2851,4.2851,0,0,1,.111.8326v3.8855H83.1933v-3.608a1.8245,1.8245,0,0,0-.222-.9436,1.2681,1.2681,0,0,0-1.3877-.6106,1.4646,1.4646,0,0,0-1.2766,1.5542v3.608H78.42c-.0555-2.22.0555-4.3851-.111-6.6054Z" style="fill: #274690"/>
    <path d="M66.2636,17.0817A35.7911,35.7911,0,0,1,67.4293,13.64c.111-.3886.2775-.7216.3885-1.11a.1194.1194,0,0,1,.111-.111h1.8873l-.0555.111c-.9437,2.1648-1.8318,4.33-2.7754,6.4389,0,.0555-.111.111-.1665.111H65.542c-.0555,0-.111,0-.1665-.111l-2.8309-6.4944c0-.0555,0-.0555-.0555-.111h1.9983c.0555,0,.111,0,.111.0555.444,1.2212.8881,2.3868,1.3321,3.608.1111.2775.1666.6106.2776.9436C66.2636,17.0262,66.2636,17.0262,66.2636,17.0817Z" style="fill: #274690"/>
    <path d="M124.5463,17.7478l.8326.0555a8.5618,8.5618,0,0,1,1.6652.2221,2.4531,2.4531,0,0,1,.8882.333,1.3327,1.3327,0,0,1,.6661,1.11,1.8769,1.8769,0,0,1-1.11,1.8318,4.2948,4.2948,0,0,1-1.4987.4441,6.6047,6.6047,0,0,1-2.5533-.1111,4.882,4.882,0,0,1-.8326-.2775,1.5685,1.5685,0,0,1-.7216-1.9983V19.302a2.1681,2.1681,0,0,1,.7771-.9436.7662.7662,0,0,0,.1665-.222c.1665-.4441.2775-.8881.444-1.2767,0-.0555,0-.0555.0556-.111a3.36,3.36,0,0,1-.5551-.3886,2.0533,2.0533,0,0,1-.7216-1.7207,2.2788,2.2788,0,0,1,1.9427-2.2758,4.7517,4.7517,0,0,1,2.3313.111h.1111l2.0537-.444h.111l.1666,1.5542h-1.11l.0555.1665a2.2039,2.2039,0,0,1-.9436,2.9419,3.8193,3.8193,0,0,1-.4441.1665,4.6753,4.6753,0,0,1-1.4987.222c-.111,0-.111,0-.1665.111A2.4422,2.4422,0,0,1,124.5463,17.7478Zm.111,1.4432h-.8881a.7727.7727,0,0,0-.2775.7771.6775.6775,0,0,0,.444.5c.0555,0,.1111.0555.1666.0555a5.4681,5.4681,0,0,0,.9436.111,4.7328,4.7328,0,0,0,1.2767-.1665,1.2073,1.2073,0,0,0,.444-.2776.3708.3708,0,0,0,0-.555.1719.1719,0,0,0-.111-.0555,1.0289,1.0289,0,0,0-.3885-.111,6.5209,6.5209,0,0,0-1.61-.2776Zm.3886-5.4952c-.1665.0555-.3331.0555-.5.111a.9516.9516,0,0,0-.7216.9436.9055.9055,0,0,0,.6661.9437,1.522,1.522,0,0,0,1.11-.0556.8317.8317,0,0,0,.5551-.8881.838.838,0,0,0-.6106-.8881.8952.8952,0,0,0-.4995-.1665Z" style="fill: #274690"/>
    <path d="M97.5142,18.5249v3.1084H95.6825V14.8059c0-.7216-.0555-1.4987-.111-2.22v-.111l1.7207-.1665.0555.8326c.1665-.111.3331-.2775.5-.3885a3.34,3.34,0,0,1,4.6071,1.0546,2.8275,2.8275,0,0,1,.3885.9436,3.4172,3.4172,0,0,1-.8881,3.497,3.301,3.301,0,0,1-4.33.2775Zm0-2.7753a1.7763,1.7763,0,1,0,1.7763-1.7763,1.7314,1.7314,0,0,0-1.7763,1.6652Z" style="fill: #274690"/>
    <path d="M87.3564,16.6377a2.35,2.35,0,0,1,.3885.2775,5.592,5.592,0,0,0,3.1085.7216,2.296,2.296,0,0,0,1.0546-.2775.9225.9225,0,0,0,.333-1.2767.6688.6688,0,0,0-.2775-.2775,2.9887,2.9887,0,0,0-1.1657-.4441c-.444-.111-.9436-.222-1.4432-.3885A3.8431,3.8431,0,0,1,88.3,14.4174a2.1383,2.1383,0,0,1-.9436-1.61,2.4912,2.4912,0,0,1,.7216-2.1093,2.8532,2.8532,0,0,1,1.5542-.8326,5.9791,5.9791,0,0,1,2.22-.0555,5,5,0,0,1,1.5542.444c.0555,0,.0555.0555.111.111l.1665,1.6653v.0555c-.111-.0555-.1665-.111-.2775-.1665a4.9087,4.9087,0,0,0-3.1639-.5551,1.852,1.852,0,0,0-.6661.2775.7917.7917,0,0,0-.111,1.11l.1665.1665a3.3958,3.3958,0,0,0,.6661.2775c.6106.2221,1.2211.3331,1.8317.5551a5.22,5.22,0,0,1,1.2212.6661,2.1808,2.1808,0,0,1,.8326,1.5542,2.8772,2.8772,0,0,1-.2775,1.6652,2.7288,2.7288,0,0,1-1.61,1.3322,5.6771,5.6771,0,0,1-2.1648.2775,7.5194,7.5194,0,0,1-2.22-.444c-.3886-.1666-.3886-.1666-.4441-.5551a11.6873,11.6873,0,0,1-.111-1.3877C87.4119,16.7487,87.4119,16.6932,87.3564,16.6377Z" style="fill: #274690"/>
    <path d="M120.6608,19.08h-1.8317V15.472a2.2961,2.2961,0,0,0-.2776-1.0546,1.2409,1.2409,0,0,0-1.3322-.5,1.4445,1.4445,0,0,0-1.2766,1.4432V19.08h-1.8873c-.0555-2.22.0555-4.3851-.111-6.6054l1.7207-.1665.0556.8881h.0555a2.2525,2.2525,0,0,1,1.61-.8881,2.9658,2.9658,0,0,1,1.8317.222,2.4737,2.4737,0,0,1,1.3877,1.8318,4.2841,4.2841,0,0,1,.111.8326V18.969Z" style="fill: #274690"/>
    <path d="M134.76,14.2509l-.1666-.1111a4.4143,4.4143,0,0,0-2.6643-.333.79.79,0,0,0-.3331.111.3616.3616,0,0,0-.111.5l.1666.1665a6.7081,6.7081,0,0,0,.9991.2775,6.9658,6.9658,0,0,1,1.4432.3886,1.7939,1.7939,0,0,1,1.0546,1.9983,1.9444,1.9444,0,0,1-1.2211,1.61,4.2248,4.2248,0,0,1-1.9983.333,4.99,4.99,0,0,1-1.9983-.444c-.0555,0-.0555-.0556-.111-.1111-.0555-.555-.111-1.1656-.1665-1.7207l.111.0555a4.7434,4.7434,0,0,0,2.9974.7216.8021.8021,0,0,0,.3885-.111.4055.4055,0,0,0,.2221-.5551.4335.4335,0,0,0-.2221-.222,3.3933,3.3933,0,0,0-.6661-.2775c-.3885-.1111-.7771-.1666-1.2211-.2776a3.68,3.68,0,0,1-1.0546-.4995,1.6812,1.6812,0,0,1-.6661-1.4987,1.91,1.91,0,0,1,1.0546-1.61,3.7814,3.7814,0,0,1,1.5542-.3885,5.3737,5.3737,0,0,1,2.1093.222.3108.3108,0,0,1,.2775.3331A4.346,4.346,0,0,1,134.76,14.2509Z" style="fill: #274690"/>
    <path d="M104.2861,12.4191l1.7208-.1665.111,1.2212a2.2054,2.2054,0,0,1,2.4978-1.2212l-.111,1.7762h-.6106a1.5127,1.5127,0,0,0-1.3877.9437,3.241,3.241,0,0,0-.222.9991V19.08h-1.8317C104.3971,16.86,104.5637,14.6394,104.2861,12.4191Z" style="fill: #274690"/>
    <path d="M112.0572,19.08h-1.8318V13.9733h-.7771l.0555-1.5542h2.6089Z" style="fill: #274690"/>
    <path d="M112.2237,10.31a1.1135,1.1135,0,0,1-1.11,1.11h-.0555a1.1623,1.1623,0,0,1-1.1656-1.11v-.0555a1.1133,1.1133,0,0,1,1.11-1.11h0a1.2209,1.2209,0,0,1,1.2212,1.1656Z" style="fill: #274690"/>
    <path d="M47.4466,23.1875h6.4389l-.1111,1.61h-4.385V26.851h3.719l-.1111,1.61H49.3894v2.2758H54.052l-.111,1.6653H47.4466Z" style="fill: #274690"/>
    <path d="M62.1005,32.4573H60.6574l-.1111-.8881a1.4715,1.4715,0,0,1-.333.2775,3.3241,3.3241,0,0,1-5.3842-2.2758A3.4229,3.4229,0,0,1,56.2168,26.24a3.332,3.332,0,0,1,3.941.0556l.0555.0555v-3.275l1.8317-.111v9.4918Zm-3.6079-5.1622A1.78,1.78,0,1,0,60.1578,28.96,1.7473,1.7473,0,0,0,58.4926,27.2951Z" style="fill: #274690"/>
    <path d="M96.5151,29.1268a3.3817,3.3817,0,0,1,2.4978-3.2749,3.7281,3.7281,0,0,1,3.5525.5551,3.3242,3.3242,0,0,1,1.3322,2.8308,3.45,3.45,0,0,1-2.9419,3.3305,4.0619,4.0619,0,0,1-2.6644-.3886A3.3639,3.3639,0,0,1,96.5151,29.1268Zm1.8872,0a.7032.7032,0,0,0,.0556.3331,1.5434,1.5434,0,0,0,1.11,1.3321,1.7387,1.7387,0,0,0,1.7762-.333,1.8323,1.8323,0,0,0,.5551-1.6652A1.7552,1.7552,0,0,0,99.9566,27.24,1.82,1.82,0,0,0,98.4023,29.1268Z" style="fill: #274690"/>
    <path d="M70.7042,32.4573H69.039l-.111-.7771-.2221.222a3.1362,3.1362,0,0,1-1.8317.7216,2.4729,2.4729,0,0,1-1.2767-.1665,2.2857,2.2857,0,0,1-1.5542-1.8318,3.165,3.165,0,0,1-.0555-.7216v-4.052H65.82V29.46a1.6281,1.6281,0,0,0,.2221.8881,1.324,1.324,0,0,0,1.2766.6106A1.374,1.374,0,0,0,68.65,29.5154v-3.719h1.8318C70.5932,28.0167,70.4822,30.237,70.7042,32.4573Z" style="fill: #274690"/>
    <path d="M107.228,32.4573h-1.8872c-.0555-2.22.0555-4.3851-.111-6.6054l1.7207-.1665c0,.2775.0555.6106.0555.9436l.0555-.0555a2.2523,2.2523,0,0,1,1.61-.8881,3.4283,3.4283,0,0,1,1.8318.222,2.4738,2.4738,0,0,1,1.3877,1.8317,4.2861,4.2861,0,0,1,.111.8327v3.8855H110.17v-3.608a1.6289,1.6289,0,0,0-.222-.8881,1.2681,1.2681,0,0,0-1.3877-.6106,1.4445,1.4445,0,0,0-1.2767,1.4432v.8326l-.0555,2.8309Z" style="fill: #274690"/>
    <path d="M79.1413,27.9057c.0555-.2221.0555-.3886.111-.6106l.1665-.9991c0-.0556.0555-.1666.1111-.1666a5.2252,5.2252,0,0,1,2.72-.444,4.3583,4.3583,0,0,1,1.2212.2775,2.0479,2.0479,0,0,1,1.2211,1.61,2.7033,2.7033,0,0,1,.0555.6661v1.9428c0,.6661.0555,1.2766.1111,1.8872a.945.945,0,0,0,.0555.3886h-1.61l-.1111-.8326c-.1665.1665-.2775.333-.3885.444a2.3379,2.3379,0,0,1-1.4432.5551,3.621,3.621,0,0,1-1.3322-.111,1.837,1.837,0,0,1,.0555-3.4415,6.3086,6.3086,0,0,1,1.3877-.333,9.0143,9.0143,0,0,0,1.0546-.222.538.538,0,0,0,.4441-.3886.6011.6011,0,0,0-.2775-.6661,1.4785,1.4785,0,0,0-.6661-.1665,4.9208,4.9208,0,0,0-2.6644.5551Zm3.7745,1.61c-.222.0555-.3885.1665-.6106.222a1.5366,1.5366,0,0,1-.4995.0555,2.3269,2.3269,0,0,0-.8327.222.5664.5664,0,0,0-.333.6661.5976.5976,0,0,0,.4441.5551,1.5472,1.5472,0,0,0,.9991-.0555A1.7923,1.7923,0,0,0,82.9158,29.5154Z" style="fill: #274690"/>
    <path d="M87.1344,27.2951H85.8022V26.0739c0-.0555,0-.111.111-.111h0c.3886-.0555.7771-.1665,1.11-.222.111,0,.111-.0555.111-.111V24.2422l1.8317-.222v1.7762c0,.111,0,.111.111.111h2.2758l-.111,1.4987H88.9661v2.4423a1.5372,1.5372,0,0,0,.0555.5,1.0032,1.0032,0,0,0,.8881.7771,2.4119,2.4119,0,0,0,1.3877-.2775l.0555-.0555c0,.222-.0555.444-.0555.61,0,.2776-.0555.6106-.0555.8881,0,.1111-.0555.1666-.1665.2221a3.6966,3.6966,0,0,1-1.7207.222,3.08,3.08,0,0,1-1.2212-.333,2.1643,2.1643,0,0,1-.9991-1.4987,3.1659,3.1659,0,0,1-.0555-.7216V27.2951Z" style="fill: #274690"/>
    <path d="M77.6426,27.7391l-.111-.0555a3.2465,3.2465,0,0,0-2.2758-.2775,1.7384,1.7384,0,0,0-1.2767,1.7762,1.7189,1.7189,0,0,0,1.6652,1.7208,3.4118,3.4118,0,0,0,1.9428-.3886l.0555-.0555c0,.1665-.0555.333-.0555.4441-.0555.444-.111.8326-.1665,1.2766,0,.0555-.0555.0555-.0555.111a4.3222,4.3222,0,0,1-3.608-.222,3.19,3.19,0,0,1-1.6652-2.4978,3.4109,3.4109,0,0,1,2.9419-3.8855h0a5.2257,5.2257,0,0,1,2.2758.1665.1194.1194,0,0,1,.111.111c.111.6106.1665,1.1657.222,1.7762Z" style="fill: #274690"/>
    <path d="M93.1292,27.3506h-.8327l.0556-1.5542h2.6088v6.6609H93.1292Z" style="fill: #274690"/>
    <path d="M95.1274,23.6871a1.1134,1.1134,0,0,1-1.11,1.11h-.0555a1.1624,1.1624,0,0,1-1.1657-1.11v-.0555a1.1134,1.1134,0,0,1,1.11-1.11h0a1.1525,1.1525,0,0,1,1.2211,1.1656Z" style="fill: #274690"/>
  </g>
  <rect x="0.0482" y="-0.0257" width="41.8317" height="41.8317" style="fill: #274690"/>
  <g>
    <path d="M14.3626,34.5391H13.299V26.44a4.0112,4.0112,0,0,0-1.3907-3.0678L5.2816,17.318h0a2.0757,2.0757,0,0,1,2.4952-1.5953,2.2291,2.2291,0,0,1,.9818.4909l4.295,3.9678a4.1157,4.1157,0,0,1,1.35,3.0678Z" style="fill: #7eb3b2"/>
    <path d="M17.2259,34.5391H16.0806V21.613a3.4011,3.4011,0,0,0-1.0635-2.4543L7.1224,12.0412h0a2.34,2.34,0,0,1,2.7815-1.7589,2.0849,2.0849,0,0,1,1.0635.5727l5.2359,4.8268a3.3794,3.3794,0,0,1,1.0635,2.4134V34.5391Z" style="fill: #bbe4ed"/>
    <path d="M19.9666,34.5391h-.6954V17.0726a2.9158,2.9158,0,0,0-.9817-2.168l-4.3769-3.9678h0a1.3332,1.3332,0,0,1,1.6362-1.0226,1.1256,1.1256,0,0,1,.6136.3272l2.8224,2.6179a2.9423,2.9423,0,0,1,.9409,2.168Z" style="fill: #fff"/>
    <path d="M27.37,34.5391H28.393V26.44a4.0113,4.0113,0,0,1,1.3908-3.0678l6.6675-6.0131h0a2.1065,2.1065,0,0,0-2.4952-1.5953,1.8961,1.8961,0,0,0-.9408.4909L28.72,20.2223A4.1157,4.1157,0,0,0,27.37,23.29Z" style="fill: #7eb3b2"/>
    <path d="M24.5889,34.5391h1.1453V21.613a3.2865,3.2865,0,0,1,1.1044-2.4543l7.8538-7.1175h0a2.3179,2.3179,0,0,0-2.7406-1.7589,2.0856,2.0856,0,0,0-1.0636.5727l-5.2767,4.8268a3.3794,3.3794,0,0,0-1.0635,2.4134Z" style="fill: #bbe4ed"/>
    <path d="M21.93,34.5391h.6954V17.0726a2.9158,2.9158,0,0,1,.9817-2.168l4.336-4.0087h0a1.3332,1.3332,0,0,0-1.6362-1.0226,1.1252,1.1252,0,0,0-.6136.3272l-2.8225,2.6179a2.9426,2.9426,0,0,0-.9408,2.168Z" style="fill: #fff"/>
    <path d="M22.38,7.6235h0a2.0251,2.0251,0,0,1,0,2.9042l-1.4317,1.4317h0l-1.4317-1.4317a2.0251,2.0251,0,0,1,0-2.9042h0A1.9771,1.9771,0,0,1,22.38,7.6235Z" style="fill: #fff"/>
  </g>
</svg>
